<?xml version="1.0" standalone="no"?>
<!DOCTYPE svg PUBLIC "-//W3C//DTD SVG 20010904//EN"
 "http://www.w3.org/TR/2001/REC-SVG-20010904/DTD/svg10.dtd">
<svg version="1.0" xmlns="http://www.w3.org/2000/svg"
 width="1280.000000pt" height="960.000000pt" viewBox="0 0 1280.000000 960.000000"
 preserveAspectRatio="xMidYMid meet">
<metadata>
Created by potrace 1.15, written by Peter Selinger 2001-2017
</metadata>
<g transform="translate(0.000000,960.000000) scale(0.100000,-0.100000)"
fill="#000000" stroke="none">
<path d="M386 9523 c-12 -12 -6 -33 9 -33 8 0 15 6 15 14 0 17 -14 28 -24 19z"/>
<path d="M1193 9513 c-27 -18 -30 -43 -5 -43 26 1 55 27 49 45 -8 19 -16 18
-44 -2z"/>
<path d="M1727 9502 c-22 -24 -21 -35 2 -56 15 -14 24 -15 40 -6 27 14 28 56
2 70 -25 13 -25 13 -44 -8z"/>
<path d="M4437 9513 c-4 -3 -7 -12 -7 -20 0 -15 26 -18 34 -4 7 11 -18 33 -27
24z"/>
<path d="M3324 9492 c-3 -9 -18 -25 -35 -34 -27 -16 -34 -32 -29 -67 1 -8 21
-33 44 -57 58 -57 75 -48 72 41 -1 35 -5 67 -9 71 -4 4 -2 13 4 20 6 8 9 21 5
29 -8 21 -47 19 -52 -3z"/>
<path d="M1379 9464 c-9 -11 -9 -18 -1 -26 14 -14 42 -3 42 16 0 20 -27 27
-41 10z"/>
<path d="M315 9454 c-25 -26 -15 -58 19 -62 16 -2 37 -13 46 -24 22 -28 60
-17 60 18 0 17 -8 28 -27 37 -16 6 -34 20 -41 29 -16 22 -36 23 -57 2z"/>
<path d="M2142 9438 c-21 -21 -14 -66 13 -84 23 -15 27 -15 50 0 29 19 33 56
9 80 -18 19 -55 21 -72 4z"/>
<path d="M4602 9418 c-21 -21 -14 -57 13 -70 22 -10 29 -9 47 10 19 18 20 25
10 47 -13 27 -49 34 -70 13z"/>
<path d="M5048 9404 c-11 -23 -10 -29 10 -44 28 -23 60 -15 68 16 13 53 -56
77 -78 28z"/>
<path d="M506 9413 c-12 -12 -6 -33 9 -33 8 0 15 6 15 14 0 17 -14 28 -24 19z"/>
<path d="M1027 9394 c-14 -14 -7 -35 11 -32 9 2 17 10 17 17 0 16 -18 25 -28
15z"/>
<path d="M12602 9388 c-30 -30 9 -69 44 -43 15 11 17 17 8 32 -14 23 -36 27
-52 11z"/>
<path d="M5684 9366 c-10 -27 1 -51 26 -54 31 -5 53 23 39 49 -12 22 -57 25
-65 5z"/>
<path d="M2612 9361 c-8 -4 -12 -19 -10 -32 2 -19 10 -25 34 -27 36 -4 50 18
34 49 -11 20 -36 24 -58 10z"/>
<path d="M1806 9347 c-12 -9 -17 -23 -14 -42 3 -27 7 -30 38 -30 31 0 35 3 38
30 3 26 -17 55 -38 55 -3 0 -14 -6 -24 -13z"/>
<path d="M1621 9336 c-14 -17 -7 -36 14 -36 22 0 29 20 13 36 -13 13 -16 13
-27 0z"/>
<path d="M230 9325 c0 -8 7 -15 15 -15 8 0 15 7 15 15 0 8 -7 15 -15 15 -8 0
-15 -7 -15 -15z"/>
<path d="M577 9334 c-9 -10 2 -24 19 -24 8 0 14 7 14 15 0 15 -21 21 -33 9z"/>
<path d="M2077 9323 c-11 -10 -8 -41 4 -49 6 -3 18 1 27 9 13 13 13 19 2 31
-14 17 -23 20 -33 9z"/>
<path d="M4202 9313 c2 -10 10 -18 18 -18 8 0 16 8 18 18 2 12 -3 17 -18 17
-15 0 -20 -5 -18 -17z"/>
<path d="M674 9309 c-10 -17 13 -36 27 -22 12 12 4 33 -11 33 -5 0 -12 -5 -16
-11z"/>
<path d="M1150 9300 c0 -15 5 -20 18 -18 9 2 17 10 17 18 0 8 -8 16 -17 18
-13 2 -18 -3 -18 -18z"/>
<path d="M3195 9303 c-11 -2 -27 -7 -35 -10 -8 -3 -21 -7 -29 -9 -7 -1 -26
-14 -41 -29 -25 -24 -76 -38 -135 -37 -60 1 -146 14 -190 29 -59 19 -195 20
-275 1 -14 -4 -63 -12 -110 -19 -47 -6 -128 -27 -180 -45 -52 -18 -97 -31 -99
-28 -3 3 -4 20 -2 39 5 62 -57 97 -99 55 -27 -27 -25 -59 7 -92 15 -15 21 -28
14 -28 -6 0 -24 -9 -39 -20 -15 -11 -73 -31 -130 -44 -113 -27 -140 -44 -248
-151 -33 -33 -81 -80 -107 -104 -31 -29 -49 -55 -53 -78 -9 -46 1 -133 15
-142 18 -12 22 -110 5 -142 -18 -36 -63 -81 -73 -75 -5 3 -23 -8 -41 -24 -19
-17 -39 -30 -45 -30 -22 0 -44 -69 -49 -156 -11 -166 -16 -191 -44 -233 -27
-40 -92 -93 -128 -105 -21 -7 -68 -100 -83 -164 -23 -107 20 -219 123 -322 68
-67 77 -84 51 -94 -19 -7 -19 -40 0 -56 12 -10 20 -9 39 3 22 15 25 15 39 -1
9 -9 20 -29 26 -44 12 -33 7 -166 -8 -181 -6 -6 -11 -21 -11 -34 0 -13 -4 -23
-10 -23 -5 0 -10 -8 -10 -18 0 -10 -9 -37 -20 -60 -11 -22 -20 -48 -20 -57 0
-8 -5 -23 -11 -33 -8 -12 -9 -41 -5 -85 7 -59 12 -72 46 -107 20 -21 40 -37
42 -34 3 2 22 -11 43 -31 44 -40 47 -40 78 -21 25 16 75 15 162 -3 60 -13 112
-38 101 -48 -3 -4 -1 -12 6 -20 17 -21 13 -116 -8 -208 -31 -131 -22 -221 28
-300 7 -11 43 -63 81 -117 37 -53 70 -105 74 -115 3 -10 14 -36 23 -58 10 -22
21 -76 25 -120 11 -125 33 -225 62 -285 15 -30 29 -63 30 -73 2 -10 11 -30 20
-44 24 -37 53 -122 43 -128 -4 -2 -8 -16 -9 -30 -3 -50 -5 -55 -23 -61 -10 -3
-18 -10 -18 -15 0 -5 -6 -9 -14 -9 -8 0 -16 -7 -20 -15 -3 -8 -10 -15 -17 -15
-6 0 -20 -11 -30 -24 -11 -14 -28 -28 -39 -31 -11 -4 -20 -13 -20 -21 0 -8 -4
-14 -10 -14 -5 0 -10 -7 -10 -15 0 -8 -5 -15 -11 -15 -6 0 -9 -7 -5 -15 3 -9
-1 -30 -8 -48 -39 -90 -49 -119 -49 -132 0 -8 -3 -15 -7 -15 -8 0 -30 -140
-30 -188 0 -26 -5 -35 -25 -42 -15 -6 -25 -17 -25 -29 0 -22 34 -46 50 -36 6
4 10 -19 10 -59 0 -37 -4 -66 -10 -66 -5 0 -10 -11 -10 -24 0 -46 -159 -166
-220 -166 -11 0 -20 -4 -20 -9 0 -6 -16 -7 -35 -4 -23 4 -35 2 -35 -6 0 -6
-10 -11 -21 -11 -31 0 -87 -37 -95 -63 -3 -12 -15 -30 -25 -39 -10 -10 -20
-39 -23 -65 -8 -65 -20 -108 -46 -173 -13 -30 -30 -72 -38 -92 -12 -32 -20
-38 -44 -38 -24 0 -27 3 -19 18 19 36 -28 102 -74 102 -25 0 -65 -46 -65 -75
0 -36 42 -75 80 -75 20 0 29 -4 25 -11 -4 -6 -13 -8 -20 -5 -7 2 -23 -7 -36
-21 -18 -19 -20 -27 -11 -30 10 -4 9 -10 -4 -24 -17 -19 -17 -20 3 -25 13 -4
20 -11 16 -20 -3 -8 1 -16 9 -19 8 -3 14 -14 15 -25 1 -11 9 -27 17 -36 9 -9
14 -19 11 -24 -3 -4 2 -13 10 -20 8 -7 15 -21 15 -31 0 -11 4 -19 8 -19 7 0
31 -50 37 -78 2 -8 10 -21 17 -30 13 -16 72 -134 103 -207 55 -129 77 -263 49
-295 -7 -8 -13 -19 -13 -25 -3 -26 -14 -45 -26 -45 -8 0 -19 -8 -24 -17 -6
-10 -11 -14 -11 -9 0 5 -7 3 -15 -4 -8 -6 -19 -9 -24 -6 -5 4 -12 3 -14 -1 -3
-5 -22 -8 -44 -8 -21 1 -41 -4 -45 -10 -7 -10 -12 -12 -48 -14 -11 0 -20 -8
-20 -16 0 -8 -9 -15 -21 -15 -11 0 -17 -4 -14 -10 3 -5 -1 -10 -9 -10 -9 0
-16 -6 -16 -14 0 -7 -6 -19 -14 -25 -30 -25 -26 -171 9 -337 13 -62 169 -176
382 -279 50 -24 94 -49 97 -54 3 -5 24 -12 46 -16 22 -4 43 -12 47 -19 5 -7
17 -18 28 -24 11 -5 34 -34 52 -64 31 -51 42 -81 93 -245 13 -40 28 -74 34
-76 5 -2 -4 -12 -21 -22 -40 -24 -59 -65 -44 -94 27 -50 88 -46 119 9 16 28
20 29 77 29 68 -2 91 2 122 19 12 7 26 11 30 11 25 -6 109 40 171 95 31 26 68
53 84 58 15 5 30 18 33 28 6 19 28 24 160 34 39 3 102 15 140 27 78 23 123 33
237 48 43 6 105 20 137 31 l60 20 35 -21 c20 -11 39 -18 44 -15 5 3 19 -6 32
-19 20 -21 73 -47 105 -50 6 -1 23 -6 38 -13 38 -16 59 -15 114 6 87 34 141
79 176 149 9 17 26 34 37 38 11 3 20 15 20 26 0 12 10 23 25 29 26 10 33 38
14 57 -9 9 -5 14 15 19 32 8 32 11 3 34 l-22 18 28 7 c15 4 27 13 27 20 0 8
14 16 30 20 26 6 29 9 19 22 -10 12 -10 16 2 24 8 5 22 9 32 9 10 0 15 5 12
10 -4 6 5 10 20 10 22 0 25 3 20 20 -5 16 -2 20 19 20 14 0 26 4 26 10 0 5 11
12 25 16 14 3 25 12 25 20 0 8 9 14 19 14 10 0 21 7 25 15 3 8 15 15 28 15 12
0 32 10 44 21 17 16 43 24 101 30 125 13 203 29 227 44 13 8 25 13 27 10 15
-14 74 76 120 186 29 68 66 143 83 167 31 44 124 122 145 122 25 0 90 41 186
119 106 85 126 97 275 159 120 51 177 60 226 37 31 -14 46 -15 117 -6 45 6
102 13 126 16 24 3 53 11 64 17 57 30 454 24 518 -8 19 -10 59 -12 155 -7 71
3 136 5 144 4 8 0 58 -2 110 -4 53 -1 105 -8 118 -15 12 -7 27 -10 33 -7 5 4
21 -1 35 -10 17 -11 35 -14 59 -9 20 3 41 2 48 -4 6 -5 32 -12 57 -15 25 -3
90 -13 145 -22 134 -24 227 -12 326 39 40 21 83 36 103 36 19 0 37 3 39 8 3 4
25 5 49 3 105 -9 281 -2 297 13 9 8 27 16 41 18 20 2 26 9 28 36 2 17 8 32 13
32 22 0 40 29 33 55 -5 19 -2 25 10 25 9 0 16 7 16 15 0 8 6 15 14 15 8 0 16
10 18 23 2 18 12 24 53 31 28 4 91 9 140 10 51 0 99 6 112 14 33 18 75 15 135
-13 29 -13 78 -30 108 -36 30 -6 64 -19 75 -29 32 -29 70 -34 104 -14 17 10
31 22 31 27 0 21 110 0 177 -33 128 -63 343 -219 343 -249 0 -9 7 -29 15 -45
8 -15 15 -38 15 -50 0 -13 3 -25 6 -29 4 -3 7 -38 8 -76 1 -62 5 -74 32 -108
17 -21 39 -40 50 -42 10 -2 35 -14 56 -27 21 -14 43 -22 48 -19 5 3 22 -1 37
-8 15 -8 55 -18 88 -22 33 -4 67 -11 75 -15 8 -5 37 -10 63 -13 26 -3 55 -11
63 -18 8 -7 27 -14 41 -15 14 -2 31 -11 37 -20 12 -16 17 -16 75 4 83 28 154
82 181 136 11 24 29 51 39 60 10 9 26 34 36 56 10 23 25 40 34 40 9 0 28 22
44 49 15 27 47 70 72 96 25 25 45 52 45 60 0 29 14 46 65 75 58 33 86 37 105
15 9 -11 17 -12 31 -4 15 8 29 3 65 -22 39 -27 49 -29 72 -20 15 6 53 10 86
10 32 0 71 5 87 12 33 13 48 51 29 74 -10 12 -8 16 11 24 13 6 35 19 48 29
l23 19 -53 19 c-29 10 -54 24 -56 29 -1 6 24 27 56 48 75 48 87 62 72 81 -8
10 -9 16 -1 21 14 9 13 21 -6 39 -8 9 -13 20 -9 25 3 5 -4 16 -16 25 -12 8
-19 18 -16 23 2 4 0 19 -6 33 -6 14 -11 33 -12 43 -2 9 -4 18 -5 20 -7 7 -5
87 2 87 5 0 6 5 3 10 -3 5 -1 10 4 10 6 0 11 7 11 15 0 18 72 89 111 110 15 8
29 21 32 30 4 8 12 15 20 15 19 0 52 49 60 88 10 51 -11 117 -70 222 -30 52
-58 102 -64 110 -5 8 -16 31 -25 50 -8 19 -23 49 -32 65 -24 45 -21 149 6 202
57 111 66 151 64 288 -1 72 -2 150 -1 175 2 136 -1 184 -10 193 -6 6 -11 28
-11 49 0 21 -5 38 -11 38 -5 0 -17 16 -25 36 -10 23 -25 39 -44 45 -16 6 -36
21 -45 35 -8 13 -20 24 -25 24 -5 0 -22 12 -37 26 -105 96 -160 131 -248 155
-69 19 -93 20 -195 14 -206 -12 -272 12 -312 113 -14 36 -14 51 -3 124 18 116
61 283 82 320 32 55 37 63 78 105 48 49 76 59 107 39 62 -40 138 -11 138 53 0
17 -10 42 -23 57 -23 26 -23 28 -5 46 30 30 25 137 -9 199 -14 27 -32 49 -40
49 -7 0 -13 4 -13 9 0 16 -69 81 -85 81 -8 0 -15 5 -15 11 0 5 -4 7 -10 4 -5
-3 -10 -1 -10 6 0 7 -3 9 -6 6 -4 -3 -16 -1 -27 4 -15 8 -22 8 -28 -2 -6 -9
-12 -10 -16 -4 -5 6 -14 10 -22 10 -8 0 -19 9 -25 20 -6 11 -18 25 -25 31 -25
19 -39 118 -26 170 6 25 16 49 22 52 14 9 75 201 67 213 -3 6 1 18 10 27 14
16 13 25 -5 97 -11 44 -25 85 -32 92 -7 6 -37 20 -68 31 -55 19 -56 19 -68 0
-6 -11 -17 -16 -23 -12 -7 4 -35 9 -62 10 -28 1 -51 3 -51 4 0 2 -37 11 -52
12 -7 1 -13 5 -13 10 0 4 -9 8 -19 8 -11 0 -26 8 -33 18 -7 9 -25 25 -39 34
-16 10 -47 59 -84 135 -63 128 -86 160 -193 271 -39 40 -77 86 -84 102 -7 17
-16 30 -19 30 -10 0 -7 124 4 138 5 6 6 12 3 12 -4 0 2 13 13 29 19 27 43 77
45 94 1 4 6 11 12 15 6 4 10 17 9 30 -1 13 2 25 6 28 5 2 6 11 3 19 -4 8 -11
12 -17 8 -6 -4 -8 0 -4 10 4 10 10 24 14 33 5 13 2 15 -15 9 -16 -5 -22 -2
-22 10 0 14 -3 14 -29 0 -17 -8 -40 -16 -52 -18 -12 -2 -29 -13 -38 -24 -22
-29 -151 -133 -201 -163 -23 -14 -55 -26 -71 -27 -17 -2 -38 -7 -47 -12 -14
-7 -142 -8 -177 -1 -16 3 -55 -12 -55 -21 0 -5 -5 -8 -12 -6 -6 1 -14 -8 -17
-21 -3 -13 -9 -23 -14 -22 -4 0 -17 -9 -29 -19 -11 -11 -25 -18 -30 -15 -4 3
-8 1 -8 -5 0 -10 -46 -23 -95 -26 -44 -3 -131 23 -205 60 -109 55 -150 63
-196 34 -26 -16 -35 -32 -55 -99 -40 -138 -110 -190 -266 -195 -37 -1 -75 -4
-83 -6 -33 -9 -74 -66 -75 -104 -1 -11 -9 -51 -19 -90 -16 -61 -24 -74 -61
-104 -47 -37 -56 -40 -159 -41 -42 -1 -76 4 -90 13 -45 29 -146 49 -214 43
-36 -3 -70 -10 -76 -15 -13 -11 -193 -71 -212 -71 -7 0 -34 -7 -59 -15 -69
-24 -139 -21 -230 9 -44 15 -91 35 -105 44 -34 22 -89 23 -125 2 -16 -10 -33
-19 -38 -19 -4 0 -37 -10 -74 -21 -41 -13 -99 -21 -152 -22 -82 -2 -90 0 -172
39 -73 35 -102 58 -205 158 -113 111 -199 175 -235 175 -9 0 -19 9 -22 20 -3
14 -14 20 -31 20 -14 0 -26 5 -26 10 0 6 -8 10 -19 10 -13 0 -20 9 -24 30 -4
17 -13 30 -21 30 -7 0 -20 10 -28 22 -13 19 -12 25 3 55 31 61 -2 113 -71 113
-30 0 -31 1 -16 22 22 31 20 74 -5 99 -18 18 -29 20 -64 16 -37 -6 -45 -3 -58
16 -8 12 -18 38 -22 57 -13 64 -100 180 -134 180 -9 0 -22 5 -28 11 -6 6 -43
12 -82 13 -63 1 -73 4 -101 31 -25 24 -40 29 -78 30 -42 1 -90 18 -172 64 -52
29 -99 51 -110 51 -16 0 -150 90 -150 101 0 24 -51 34 -170 34 -119 0 -128 1
-177 29 -28 15 -64 45 -80 65 -29 36 -93 160 -93 178 0 45 -94 142 -139 145
-32 2 -29 2 -154 -7 -56 -4 -122 -8 -147 -8 -66 0 -212 14 -230 22 -8 4 -24 6
-35 4z m1907 -1171 c7 -11 23 -22 36 -26 12 -4 22 -14 22 -22 0 -8 4 -14 9
-14 11 0 21 -63 11 -70 -4 -3 -16 -23 -26 -45 -15 -31 -28 -42 -65 -55 -25 -9
-53 -16 -63 -14 -38 5 -83 34 -95 61 -7 15 -17 35 -21 43 -8 18 -2 70 11 86 5
6 6 14 3 17 -4 3 6 12 22 19 16 7 31 15 34 19 8 9 31 15 71 18 27 1 41 -4 51
-17z m5908 -3292 c11 -11 20 -24 20 -30 0 -5 7 -7 15 -4 18 7 20 -23 5 -78
-10 -33 -17 -78 -21 -128 -1 -8 -6 -20 -11 -27 -5 -7 -7 -17 -4 -22 4 -5 2
-12 -4 -16 -6 -4 -8 -10 -5 -14 6 -10 -21 -68 -43 -93 -10 -12 -29 -18 -54
-18 -21 0 -38 -4 -38 -10 0 -15 -14 -12 -38 8 -12 9 -32 24 -45 33 -20 15 -23
24 -21 80 1 35 7 76 13 91 6 15 8 35 5 43 -4 8 -2 15 4 15 5 0 12 17 15 38 8
49 79 128 127 141 52 14 58 13 80 -9z m-9195 -1290 c22 -6 50 -14 63 -17 12
-3 22 -10 22 -16 0 -6 3 -7 7 -4 3 4 17 -5 31 -20 20 -22 23 -33 18 -65 -8
-48 -40 -93 -75 -107 -41 -17 -132 -21 -181 -9 -25 6 -64 25 -87 42 -42 31
-43 34 -47 114 -1 9 -4 19 -8 22 -9 7 0 20 39 51 28 24 38 26 105 23 40 -1 91
-8 113 -14z m8917 -132 c3 -7 11 -13 19 -14 8 0 22 -2 32 -2 10 -1 17 -10 17
-21 0 -11 5 -21 12 -23 8 -3 4 -12 -10 -26 -12 -12 -22 -27 -22 -33 0 -12 -61
-39 -90 -39 -12 0 -18 5 -15 10 3 6 1 10 -5 10 -6 0 -8 5 -5 10 3 6 -3 10 -14
10 -12 0 -21 5 -21 10 0 6 5 10 11 10 5 0 8 4 4 9 -3 6 2 14 12 19 14 8 15 13
4 26 -11 13 -8 18 21 36 39 23 45 24 50 8z"/>
<path d="M4710 9293 c0 -30 38 -83 59 -83 25 0 51 26 51 50 0 26 -38 50 -77
50 -25 0 -33 -4 -33 -17z"/>
<path d="M1480 9280 c-11 -11 -20 -27 -20 -35 0 -19 36 -55 55 -55 19 0 55 36
55 55 0 19 -36 55 -55 55 -8 0 -24 -9 -35 -20z"/>
<path d="M604 9256 c-12 -31 0 -51 31 -51 27 0 30 3 30 30 0 25 -4 30 -28 33
-17 2 -29 -2 -33 -12z"/>
<path d="M917 9254 c-14 -14 -7 -35 11 -32 9 2 17 10 17 17 0 16 -18 25 -28
15z"/>
<path d="M1231 9221 c-17 -11 -7 -41 13 -41 22 0 30 20 15 36 -9 8 -19 10 -28
5z"/>
<path d="M4452 9218 c-15 -18 1 -41 24 -36 23 4 26 41 3 46 -9 1 -21 -3 -27
-10z"/>
<path d="M5241 9212 c-13 -25 5 -52 34 -52 15 0 26 7 30 20 13 41 -44 70 -64
32z"/>
<path d="M1136 9202 c-9 -14 12 -35 28 -29 23 9 20 37 -3 37 -11 0 -22 -4 -25
-8z"/>
<path d="M5098 9203 c-19 -5 -24 -28 -9 -37 15 -10 61 12 61 29 0 15 -17 17
-52 8z"/>
<path d="M804 9179 c-10 -17 13 -36 27 -22 12 12 4 33 -11 33 -5 0 -12 -5 -16
-11z"/>
<path d="M4700 9150 c0 -13 7 -20 20 -20 13 0 20 7 20 20 0 13 -7 20 -20 20
-13 0 -20 -7 -20 -20z"/>
<path d="M201 9146 c-9 -10 -9 -16 -1 -21 17 -10 37 12 24 25 -8 8 -15 6 -23
-4z"/>
<path d="M1010 9140 c0 -15 5 -20 18 -18 9 2 17 10 17 18 0 8 -8 16 -17 18
-13 2 -18 -3 -18 -18z"/>
<path d="M9610 9130 c0 -15 5 -20 18 -18 9 2 17 10 17 18 0 8 -8 16 -17 18
-13 2 -18 -3 -18 -18z"/>
<path d="M1182 9128 c-15 -15 -15 -51 0 -66 28 -28 78 -7 78 33 0 27 -18 45
-45 45 -12 0 -26 -5 -33 -12z"/>
<path d="M10 9115 c0 -8 7 -15 15 -15 8 0 15 7 15 15 0 8 -7 15 -15 15 -8 0
-15 -7 -15 -15z"/>
<path d="M4772 9118 c-7 -7 -12 -21 -12 -33 0 -12 5 -26 12 -33 7 -7 21 -12
33 -12 12 0 26 5 33 12 7 7 12 21 12 33 0 12 -5 26 -12 33 -7 7 -21 12 -33 12
-12 0 -26 -5 -33 -12z"/>
<path d="M5613 9118 c2 -7 10 -13 17 -13 7 0 15 6 18 13 2 7 -5 12 -18 12 -13
0 -20 -5 -17 -12z"/>
<path d="M473 9063 c-22 -8 -16 -61 7 -68 39 -12 66 35 38 63 -13 13 -24 14
-45 5z"/>
<path d="M4441 9047 c-16 -16 -14 -34 5 -41 21 -8 34 1 34 24 0 22 -23 33 -39
17z"/>
<path d="M5295 9046 c-20 -15 -17 -44 7 -59 12 -8 21 -7 32 2 36 30 -1 85 -39
57z"/>
<path d="M1381 9041 c-7 -5 -11 -23 -9 -42 2 -26 8 -34 23 -34 16 0 21 8 23
36 3 38 -13 55 -37 40z"/>
<path d="M4997 8999 c-19 -27 -10 -58 19 -65 48 -12 75 18 56 62 -14 30 -55
32 -75 3z"/>
<path d="M630 8965 c-6 -8 -9 -23 -5 -35 10 -31 59 -24 63 9 6 37 -34 55 -58
26z"/>
<path d="M383 8963 c-18 -7 -16 -48 2 -63 17 -14 51 -5 59 16 14 35 -23 63
-61 47z"/>
<path d="M6032 8944 c4 -21 22 -23 26 -1 2 10 -3 17 -13 17 -10 0 -15 -6 -13
-16z"/>
<path d="M1246 8924 c-19 -18 -21 -55 -4 -72 7 -7 24 -12 38 -12 14 0 31 5 38
12 28 28 2 88 -38 88 -10 0 -26 -7 -34 -16z"/>
<path d="M996 8903 c-12 -12 -6 -33 9 -33 8 0 15 6 15 14 0 17 -14 28 -24 19z"/>
<path d="M5116 8894 c-19 -18 -20 -28 -6 -55 16 -29 67 -26 81 5 23 50 -36 90
-75 50z"/>
<path d="M6183 8874 c-9 -24 10 -49 38 -49 20 0 24 5 24 30 0 25 -4 30 -28 33
-18 2 -29 -2 -34 -14z"/>
<path d="M730 8866 c-27 -33 18 -72 48 -42 13 13 14 20 6 34 -15 23 -38 26
-54 8z"/>
<path d="M237 8863 c-14 -14 -6 -53 13 -63 28 -15 65 22 50 50 -10 19 -49 27
-63 13z"/>
<path d="M10403 8844 c-8 -21 13 -42 28 -27 13 13 5 43 -11 43 -6 0 -13 -7
-17 -16z"/>
<path d="M1105 8810 c-8 -14 3 -30 21 -30 8 0 14 9 14 20 0 21 -24 28 -35 10z"/>
<path d="M1300 8795 c-10 -12 -10 -18 0 -30 20 -25 55 -15 55 15 0 30 -35 40
-55 15z"/>
<path d="M508 8789 c-37 -21 -9 -77 32 -64 22 7 27 44 8 63 -14 14 -18 14 -40
1z"/>
<path d="M647 8782 c-20 -22 -22 -42 -4 -42 19 0 37 21 37 42 0 23 -12 23 -33
0z"/>
<path d="M6845 8790 c-7 -12 2 -30 16 -30 5 0 9 9 9 20 0 21 -15 27 -25 10z"/>
<path d="M209 8754 c-10 -13 -9 -16 9 -21 12 -3 22 -12 22 -19 0 -8 7 -14 15
-14 8 0 15 -6 15 -14 0 -20 19 -31 32 -18 12 12 -28 62 -49 62 -7 0 -13 6 -13
14 0 22 -16 28 -31 10z"/>
<path d="M5142 8698 c-44 -22 -41 -96 4 -117 22 -10 31 -9 50 4 49 32 51 90 5
114 -24 13 -29 13 -59 -1z"/>
<path d="M8431 8701 c-17 -11 -7 -41 13 -41 22 0 30 20 15 36 -9 8 -19 10 -28
5z"/>
<path d="M334 8689 c-8 -14 11 -33 25 -25 6 4 11 14 11 22 0 16 -26 19 -36 3z"/>
<path d="M6276 8692 c-8 -13 11 -35 23 -28 16 10 14 36 -3 36 -8 0 -17 -4 -20
-8z"/>
<path d="M444 8679 c-10 -17 13 -36 27 -22 12 12 4 33 -11 33 -5 0 -12 -5 -16
-11z"/>
<path d="M6514 8649 c-10 -17 13 -36 27 -22 12 12 4 33 -11 33 -5 0 -12 -5
-16 -11z"/>
<path d="M10077 8512 c-33 -36 -8 -92 40 -92 25 0 53 30 53 57 0 46 -62 69
-93 35z"/>
<path d="M1206 8474 c-22 -21 -3 -56 27 -52 37 5 33 67 -5 68 -4 0 -14 -7 -22
-16z"/>
<path d="M1020 8455 c-10 -11 -10 -19 -2 -27 15 -15 44 -2 40 19 -4 23 -22 27
-38 8z"/>
<path d="M150 8435 c-26 -32 13 -81 48 -59 34 22 22 74 -18 74 -10 0 -23 -7
-30 -15z"/>
<path d="M5587 8394 c-14 -14 -7 -35 11 -32 9 2 17 10 17 17 0 16 -18 25 -28
15z"/>
<path d="M740 8345 c0 -8 7 -15 15 -15 8 0 15 7 15 15 0 8 -7 15 -15 15 -8 0
-15 -7 -15 -15z"/>
<path d="M10813 8344 c-9 -23 13 -40 32 -24 12 10 13 16 4 26 -15 18 -28 18
-36 -2z"/>
<path d="M6283 8244 c-8 -22 18 -37 36 -20 7 8 10 19 7 25 -10 16 -36 13 -43
-5z"/>
<path d="M1174 8195 c-4 -9 0 -23 9 -32 21 -21 49 -9 45 19 -4 28 -45 38 -54
13z"/>
<path d="M852 8168 c-32 -32 0 -78 42 -62 30 11 14 74 -19 74 -6 0 -16 -5 -23
-12z"/>
<path d="M955 8160 c-8 -14 3 -30 21 -30 8 0 14 9 14 20 0 21 -24 28 -35 10z"/>
<path d="M10166 8121 c-18 -20 -29 -71 -15 -71 4 0 4 -12 0 -28 -9 -29 10 -59
29 -47 6 3 10 1 10 -4 0 -12 29 -14 54 -5 9 3 16 12 16 20 0 8 6 14 14 14 7 0
16 8 20 18 3 9 8 22 11 28 3 6 -5 25 -19 41 -14 17 -23 33 -19 37 3 3 0 7 -8
7 -21 2 -22 2 -48 -6 -16 -5 -21 -4 -17 4 12 18 -10 12 -28 -8z"/>
<path d="M11469 8091 c-26 -21 -19 -56 13 -67 30 -9 64 27 49 54 -15 29 -37
33 -62 13z"/>
<path d="M902 8053 c2 -10 10 -18 18 -18 22 0 18 29 -3 33 -14 3 -18 -1 -15
-15z"/>
<path d="M5680 8001 c-7 -15 -6 -24 6 -36 19 -18 33 -16 48 7 7 12 6 21 -3 32
-18 22 -38 20 -51 -3z"/>
<path d="M73 7943 c-7 -3 -13 -15 -13 -28 0 -32 32 -41 76 -20 41 19 40 40 -2
40 -16 1 -34 3 -39 7 -6 3 -16 3 -22 1z"/>
<path d="M374 7889 c-3 -6 1 -18 10 -27 15 -15 17 -15 32 0 19 19 11 38 -16
38 -10 0 -22 -5 -26 -11z"/>
<path d="M461 7831 c-15 -10 -8 -41 9 -41 15 0 25 29 14 40 -5 5 -15 5 -23 1z"/>
<path d="M592 7774 c-25 -17 -29 -56 -8 -73 8 -7 30 -11 48 -9 26 2 35 9 43
32 8 24 6 31 -14 47 -28 23 -40 24 -69 3z"/>
<path d="M10790 7534 c-11 -12 -10 -18 3 -32 16 -15 18 -15 34 0 13 14 14 20
3 32 -7 9 -16 16 -20 16 -4 0 -13 -7 -20 -16z"/>
<path d="M864 7456 c-8 -21 3 -36 27 -36 15 0 20 6 17 22 -4 27 -35 37 -44 14z"/>
<path d="M355 7410 c-26 -29 -9 -55 35 -55 40 0 61 25 44 53 -16 25 -57 27
-79 2z"/>
<path d="M578 7409 c-21 -12 -24 -59 -6 -77 7 -7 21 -12 33 -12 43 0 61 53 29
84 -18 18 -32 20 -56 5z"/>
<path d="M639 7294 c-9 -11 -9 -18 -1 -26 14 -14 42 -3 42 16 0 20 -27 27 -41
10z"/>
<path d="M380 7260 c0 -15 5 -20 18 -18 9 2 17 10 17 18 0 8 -8 16 -17 18 -13
2 -18 -3 -18 -18z"/>
<path d="M710 7230 c-11 -11 -20 -27 -20 -35 0 -19 36 -55 55 -55 19 0 55 36
55 55 0 19 -36 55 -55 55 -8 0 -24 -9 -35 -20z"/>
<path d="M101 7226 c-12 -14 -5 -26 16 -26 15 0 18 26 4 34 -5 3 -14 0 -20 -8z"/>
<path d="M1044 7205 c-4 -9 -2 -21 4 -27 16 -16 47 -5 47 17 0 26 -42 34 -51
10z"/>
<path d="M516 7108 c-13 -19 -14 -25 -2 -43 26 -39 76 -26 76 19 0 46 -48 62
-74 24z"/>
<path d="M637 7096 c-8 -20 20 -43 35 -28 14 14 3 42 -16 42 -7 0 -16 -6 -19
-14z"/>
<path d="M132 7043 c2 -10 10 -18 18 -18 22 0 18 29 -3 33 -14 3 -18 -1 -15
-15z"/>
<path d="M817 6986 c-7 -19 18 -40 39 -32 8 3 14 14 12 23 -4 22 -43 29 -51 9z"/>
<path d="M1056 6968 c-21 -29 -20 -40 5 -72 24 -31 57 -34 86 -7 11 11 31 21
44 23 16 2 25 11 27 27 4 28 -14 42 -44 35 -12 -3 -25 -1 -28 5 -13 20 -74 13
-90 -11z"/>
<path d="M495 6900 c-4 -7 -3 -16 3 -22 14 -14 45 -2 40 15 -6 16 -34 21 -43
7z"/>
<path d="M624 6825 c-4 -9 -2 -21 4 -27 15 -15 44 -1 40 19 -4 23 -36 29 -44
8z"/>
<path d="M744 6826 c-8 -21 3 -36 27 -36 15 0 20 6 17 22 -4 27 -35 37 -44 14z"/>
<path d="M582 6668 c-20 -20 -14 -66 9 -79 33 -17 69 3 69 39 0 33 -16 52 -45
52 -12 0 -26 -5 -33 -12z"/>
<path d="M485 6620 c-4 -7 -3 -16 3 -22 14 -14 45 -2 40 15 -6 16 -34 21 -43
7z"/>
<path d="M957 6552 c-35 -38 -13 -92 36 -92 40 0 57 15 57 51 0 53 -59 79 -93
41z"/>
<path d="M575 6510 c-8 -14 3 -30 21 -30 8 0 14 9 14 20 0 21 -24 28 -35 10z"/>
<path d="M215 6380 c-8 -14 3 -30 21 -30 8 0 14 9 14 20 0 21 -24 28 -35 10z"/>
<path d="M430 6245 c-7 -8 -10 -25 -6 -39 11 -44 76 -38 76 7 0 43 -44 63 -70
32z"/>
<path d="M11538 6209 c-44 -25 -3 -93 42 -69 26 14 26 56 1 70 -23 12 -22 12
-43 -1z"/>
<path d="M973 6104 c-3 -8 -1 -20 6 -27 14 -14 47 15 37 32 -10 16 -36 13 -43
-5z"/>
<path d="M1178 6088 c-9 -7 -19 -23 -23 -35 -9 -32 36 -77 68 -68 47 15 61 61
27 95 -23 23 -49 26 -72 8z"/>
<path d="M1414 5975 c-10 -24 12 -42 34 -29 24 16 21 38 -6 42 -13 2 -25 -3
-28 -13z"/>
<path d="M947 5892 c-22 -24 -21 -45 1 -65 24 -22 55 -21 75 1 22 24 21 45 -1
65 -24 22 -55 21 -75 -1z"/>
<path d="M994 5785 c-4 -9 -2 -21 4 -27 15 -15 44 -1 40 19 -4 23 -36 29 -44
8z"/>
<path d="M1110 5740 c0 -15 7 -20 25 -20 18 0 25 5 25 20 0 15 -7 20 -25 20
-18 0 -25 -5 -25 -20z"/>
<path d="M10640 5644 c-11 -12 -10 -18 3 -32 16 -15 18 -15 34 0 13 14 14 20
3 32 -7 9 -16 16 -20 16 -4 0 -13 -7 -20 -16z"/>
<path d="M262 5638 c-25 -25 -6 -68 30 -68 9 0 22 9 28 19 13 25 13 27 -6 45
-19 19 -36 20 -52 4z"/>
<path d="M222 5404 c4 -21 22 -23 26 -1 2 10 -3 17 -13 17 -10 0 -15 -6 -13
-16z"/>
<path d="M1496 5384 c-19 -18 -21 -55 -4 -72 19 -19 55 -14 72 9 16 23 12 47
-12 67 -21 16 -37 15 -56 -4z"/>
<path d="M1320 5360 c0 -13 7 -20 20 -20 13 0 20 7 20 20 0 13 -7 20 -20 20
-13 0 -20 -7 -20 -20z"/>
<path d="M1214 5185 c-7 -18 3 -35 21 -35 18 0 26 15 19 34 -8 20 -33 21 -40
1z"/>
<path d="M1690 4981 c0 -27 19 -36 37 -18 18 18 9 37 -18 37 -12 0 -19 -7 -19
-19z"/>
<path d="M1423 4944 c-8 -21 13 -42 28 -27 13 13 5 43 -11 43 -6 0 -13 -7 -17
-16z"/>
<path d="M640 4866 c-19 -23 -8 -61 18 -64 46 -7 72 47 33 68 -26 14 -36 13
-51 -4z"/>
<path d="M160 4815 c-20 -24 -3 -55 30 -55 20 0 31 6 35 20 8 25 -10 50 -35
50 -10 0 -23 -7 -30 -15z"/>
<path d="M402 4753 c4 -21 33 -25 33 -3 0 8 -8 16 -18 18 -14 3 -18 -1 -15
-15z"/>
<path d="M627 4713 c-4 -3 -7 -12 -7 -20 0 -15 26 -18 34 -4 7 11 -18 33 -27
24z"/>
<path d="M912 4383 c2 -10 10 -18 18 -18 22 0 18 29 -3 33 -14 3 -18 -1 -15
-15z"/>
<path d="M1267 4212 c-22 -24 -21 -55 1 -75 38 -35 102 -9 102 40 0 47 -71 71
-103 35z"/>
<path d="M11816 4034 c-21 -20 -20 -37 3 -65 16 -20 23 -22 47 -14 51 18 42
95 -12 95 -12 0 -30 -7 -38 -16z"/>
<path d="M325 3750 c-8 -14 3 -30 21 -30 8 0 14 9 14 20 0 21 -24 28 -35 10z"/>
<path d="M12225 3600 c-4 -7 -3 -16 3 -22 14 -14 45 -2 40 15 -6 16 -34 21
-43 7z"/>
<path d="M12513 3284 c-7 -19 11 -39 26 -30 16 10 13 33 -4 40 -9 3 -18 -1
-22 -10z"/>
<path d="M12017 2926 c-8 -20 20 -43 35 -28 14 14 3 42 -16 42 -7 0 -16 -6
-19 -14z"/>
<path d="M12521 2786 c-9 -10 -8 -16 4 -26 19 -16 41 1 32 24 -8 20 -21 20
-36 2z"/>
<path d="M7517 2702 c-18 -19 -22 -68 -9 -89 23 -36 91 -32 112 6 33 62 -57
134 -103 83z"/>
<path d="M8197 2504 c-12 -12 -8 -42 6 -47 21 -8 39 8 35 29 -3 19 -29 30 -41
18z"/>
<path d="M11152 2338 c-18 -18 -14 -63 8 -83 45 -41 110 18 76 70 -18 27 -63
34 -84 13z"/>
<path d="M10346 2284 c-22 -21 -20 -77 2 -97 25 -22 75 -21 95 1 22 25 21 75
-1 95 -23 21 -76 22 -96 1z"/>
<path d="M6996 2251 c-37 -41 14 -97 60 -66 28 18 31 46 8 69 -21 21 -47 20
-68 -3z"/>
<path d="M9914 2195 c-9 -23 3 -45 24 -45 28 0 43 20 31 42 -12 22 -47 24 -55
3z"/>
<path d="M8514 2136 c-7 -19 3 -36 22 -36 10 0 14 8 12 22 -4 26 -26 36 -34
14z"/>
<path d="M8402 2103 c5 -26 38 -29 38 -4 0 15 -6 21 -21 21 -14 0 -19 -5 -17
-17z"/>
<path d="M9236 1954 c-19 -18 -21 -55 -4 -72 7 -7 24 -12 38 -12 49 0 68 51
32 83 -23 21 -46 22 -66 1z"/>
<path d="M5401 1871 c-17 -11 -7 -41 13 -41 22 0 30 20 15 36 -9 8 -19 10 -28
5z"/>
<path d="M8237 1814 c-14 -14 -7 -35 11 -32 9 2 17 10 17 17 0 16 -18 25 -28
15z"/>
<path d="M12725 1710 c-8 -14 3 -30 21 -30 8 0 14 9 14 20 0 21 -24 28 -35 10z"/>
<path d="M3870 1579 c-33 -19 -34 -20 -7 -16 28 4 37 -7 15 -17 -7 -3 -1 -5
14 -3 25 4 26 3 12 -18 -18 -28 -9 -54 16 -48 10 3 27 -4 38 -15 25 -25 89
-36 126 -22 23 8 27 15 24 35 -3 14 -1 25 6 25 17 1 -43 50 -60 50 -8 0 -12 5
-9 10 3 6 -1 13 -10 16 -13 6 -14 8 -3 15 8 5 -15 9 -57 8 -51 0 -79 -5 -105
-20z"/>
<path d="M7515 1571 c-8 -15 3 -31 21 -31 9 0 14 7 12 17 -4 20 -24 28 -33 14z"/>
<path d="M942 1498 c-21 -21 -15 -68 11 -77 46 -18 86 38 52 73 -19 19 -46 21
-63 4z"/>
<path d="M407 1223 c-15 -14 -7 -63 12 -73 39 -20 82 22 61 60 -10 20 -58 28
-73 13z"/>
<path d="M12370 1115 c-20 -25 -8 -50 25 -50 24 0 31 5 33 24 6 37 -34 55 -58
26z"/>
<path d="M9880 1056 c-6 -8 -10 -25 -8 -38 2 -19 9 -23 38 -23 29 0 36 4 38
23 4 28 -14 52 -38 52 -10 0 -23 -7 -30 -14z"/>
<path d="M9315 1050 c-8 -14 3 -30 21 -30 8 0 14 9 14 20 0 21 -24 28 -35 10z"/>
<path d="M7200 995 c0 -8 7 -15 15 -15 8 0 15 7 15 15 0 8 -7 15 -15 15 -8 0
-15 -7 -15 -15z"/>
<path d="M6849 924 c-16 -20 -1 -48 29 -52 27 -4 49 33 31 54 -15 19 -43 18
-60 -2z"/>
<path d="M1130 882 c-28 -23 -20 -59 16 -68 46 -12 72 37 38 70 -20 20 -27 20
-54 -2z"/>
<path d="M11010 585 c0 -21 30 -31 40 -14 11 17 3 29 -21 29 -10 0 -19 -7 -19
-15z"/>
<path d="M655 506 c-21 -15 -17 -55 8 -70 25 -16 52 4 52 39 0 33 -33 51 -60
31z"/>
<path d="M12010 365 c0 -8 7 -15 15 -15 8 0 15 7 15 15 0 8 -7 15 -15 15 -8 0
-15 -7 -15 -15z"/>
<path d="M8145 350 c-3 -6 1 -13 10 -16 19 -8 30 0 20 15 -8 14 -22 14 -30 1z"/>
<path d="M10842 224 c4 -21 22 -23 26 -1 2 10 -3 17 -13 17 -10 0 -15 -6 -13
-16z"/>
<path d="M12683 143 c-18 -7 -16 -30 4 -37 21 -8 38 8 30 28 -7 16 -13 18 -34
9z"/>
</g>
</svg>
