<?xml version="1.0" standalone="no"?>
<!DOCTYPE svg PUBLIC "-//W3C//DTD SVG 20010904//EN"
 "http://www.w3.org/TR/2001/REC-SVG-20010904/DTD/svg10.dtd">
<svg version="1.0" xmlns="http://www.w3.org/2000/svg"
 width="1280.000000pt" height="960.000000pt" viewBox="0 0 1280.000000 960.000000"
 preserveAspectRatio="xMidYMid meet">
<metadata>
Created by potrace 1.15, written by Peter Selinger 2001-2017
</metadata>
<g transform="translate(0.000000,960.000000) scale(0.100000,-0.100000)"
fill="#000000" stroke="none">
<path d="M0 8591 c0 -770 3 -1012 12 -1017 6 -4 14 -2 16 4 2 7 11 12 21 12 9
0 23 6 29 12 7 7 18 13 25 14 46 4 77 38 77 82 -1 21 -23 52 -39 52 -6 0 -11
7 -11 15 0 8 -7 15 -16 15 -8 0 -12 5 -9 10 3 6 -3 10 -15 10 -16 0 -20 5 -16
25 3 13 7 29 11 35 3 5 -3 10 -14 10 -24 0 -25 5 -10 49 9 24 15 30 30 26 14
-5 22 1 31 20 6 14 17 24 24 21 8 -3 16 -1 19 5 4 5 11 6 17 3 6 -4 16 -1 22
7 6 8 24 21 40 29 35 18 59 69 80 170 19 91 19 131 1 235 l-14 79 27 28 c15
15 32 28 39 28 6 0 17 13 24 29 7 16 18 27 25 24 6 -2 16 10 22 26 12 34 27
44 17 11 -10 -32 5 -23 16 10 6 17 15 30 20 30 4 0 6 -6 3 -14 -7 -19 24 -15
36 4 6 10 12 11 22 4 7 -6 32 -12 55 -13 31 -2 47 3 62 18 24 24 27 71 9 101
-21 33 7 72 55 76 20 2 42 6 48 10 18 11 27 48 16 71 -10 22 -60 47 -71 36 -3
-4 -6 -1 -6 6 0 10 -7 9 -25 -3 -24 -16 -34 -10 -16 10 5 5 14 36 20 69 15 81
57 165 82 165 10 0 19 -4 19 -9 0 -16 38 -23 59 -12 13 7 18 19 16 32 -6 28
-9 30 -49 44 -30 11 -33 10 -28 -4 5 -13 4 -14 -10 -1 -8 8 -13 22 -11 31 3 9
-1 28 -8 40 -7 13 -12 32 -10 42 1 9 -3 17 -8 17 -6 0 -11 7 -11 15 0 8 -5 15
-11 15 -7 0 -9 12 -5 34 5 23 3 35 -6 38 -10 4 -10 13 -1 41 l11 37 -369 0
-369 0 0 -1009z"/>
<path d="M2946 9591 c-11 -16 13 -61 32 -61 23 0 55 38 48 56 -6 16 -71 20
-80 5z"/>
<path d="M3588 9548 c-37 -54 -76 -135 -97 -199 -12 -37 -63 -95 -118 -136
-34 -25 -75 -104 -72 -137 2 -11 -1 -31 -5 -43 -4 -13 -2 -32 4 -44 10 -18 8
-25 -19 -53 -17 -17 -52 -40 -78 -50 -26 -10 -60 -30 -75 -43 -26 -25 -26 -25
-33 -4 -3 12 -11 19 -16 16 -5 -4 -9 1 -9 10 0 9 -4 13 -10 10 -5 -3 -10 0
-11 7 -6 118 -23 158 -69 158 -38 0 -60 -24 -60 -65 0 -24 7 -39 25 -53 13
-11 21 -22 18 -26 -3 -3 -1 -6 5 -6 7 0 -8 -24 -32 -54 -47 -58 -63 -111 -51
-166 4 -17 13 -34 21 -37 8 -3 11 -10 8 -15 -8 -13 15 -28 44 -28 13 0 20 -4
17 -10 -8 -13 2 -13 66 1 49 11 54 10 71 -11 9 -12 22 -19 28 -15 14 9 13 -10
-5 -51 l-14 -35 29 21 c23 16 28 17 24 6 -3 -9 -10 -16 -14 -16 -18 0 -20 -41
-4 -75 14 -31 21 -35 53 -35 28 0 43 -7 59 -25 18 -20 26 -23 41 -16 33 18 32
49 -2 76 -31 24 -31 25 -12 40 36 29 124 85 133 85 37 0 107 157 74 168 -9 3
-6 10 9 23 23 20 54 25 63 10 10 -16 105 -33 144 -26 29 5 52 23 105 77 37 39
67 74 67 78 0 3 11 13 25 20 14 7 25 19 25 27 0 7 5 13 10 13 6 0 10 8 10 18
0 12 13 23 38 32 20 7 42 20 48 28 7 9 19 13 33 9 13 -3 53 1 89 8 43 9 70 11
76 5 6 -6 18 -10 27 -10 10 0 19 -5 21 -11 2 -6 30 -11 63 -12 52 -1 69 4 126
36 37 20 78 48 93 62 37 34 54 42 109 50 32 5 47 4 47 -4 0 -6 7 -11 15 -11 8
0 15 -4 15 -10 0 -5 8 -10 19 -10 10 0 24 -7 31 -15 13 -15 67 -20 108 -9 12
4 29 19 38 35 8 16 21 29 29 29 8 0 15 7 15 15 0 8 5 15 10 15 6 0 10 6 10 14
0 20 59 40 151 50 22 3 25 -1 24 -25 -1 -15 1 -28 4 -27 24 2 31 -3 23 -19 -5
-10 -7 -31 -6 -46 7 -68 67 -77 97 -14 9 20 23 37 30 37 7 0 30 9 52 20 49 25
76 25 101 2 25 -24 78 -42 120 -42 27 0 34 4 34 19 0 12 9 21 25 25 14 4 25
13 25 21 0 8 11 26 24 40 13 14 34 41 47 60 13 19 27 35 31 35 4 0 5 6 2 14
-4 10 5 16 25 21 21 4 31 13 31 25 0 14 11 19 58 25 31 3 68 9 81 12 20 5 23
3 18 -11 -5 -13 0 -16 28 -16 24 0 35 -5 35 -15 0 -8 5 -15 10 -15 6 0 10 -6
10 -14 0 -14 68 -27 150 -27 36 -1 50 -6 68 -26 12 -15 22 -32 22 -40 0 -7 5
-13 10 -13 6 0 10 -9 10 -20 0 -11 4 -20 8 -20 5 0 20 -24 35 -53 38 -78 56
-91 117 -84 113 14 144 54 142 188 -1 71 2 91 13 95 8 4 15 13 15 20 0 12 13
13 68 9 37 -3 79 -8 93 -10 14 -2 36 3 48 11 29 21 87 15 83 -8 -2 -10 2 -18
7 -18 6 0 8 -7 5 -15 -4 -8 -1 -15 5 -15 6 0 17 -12 24 -27 6 -16 25 -43 42
-61 24 -26 41 -34 82 -38 28 -4 62 -4 76 0 22 5 64 43 115 104 23 26 49 27
117 6 67 -22 228 -43 240 -33 12 12 56 11 75 -1 10 -6 11 -10 3 -10 -25 0 -12
-19 17 -25 28 -6 29 -8 15 -29 -8 -12 -12 -25 -9 -29 4 -3 7 -25 9 -49 4 -80
36 -117 103 -118 27 0 105 77 98 97 -3 7 1 13 10 13 8 0 12 5 9 10 -3 6 -2 10
4 10 6 0 8 6 5 14 -4 11 1 13 24 10 21 -3 31 0 34 9 5 22 94 -6 100 -31 3 -11
18 -21 36 -25 16 -3 42 -17 57 -31 29 -27 113 -51 143 -42 11 4 40 2 66 -4 31
-7 52 -7 64 0 12 7 47 2 127 -18 92 -24 110 -31 113 -49 3 -17 26 -28 133 -63
93 -30 133 -48 141 -63 20 -38 83 -95 122 -111 58 -24 140 -19 171 10 15 13
36 24 49 24 37 0 48 21 30 55 -14 26 -13 33 1 70 10 22 21 48 26 58 6 11 6 24
0 35 -5 10 -6 24 -2 31 12 19 -8 92 -32 119 -24 26 -72 52 -98 52 -10 0 -21 5
-24 10 -3 6 -17 10 -30 10 -13 0 -27 5 -30 10 -3 6 -17 10 -30 10 -15 0 -33
11 -47 30 -12 17 -29 30 -38 30 -25 0 -44 27 -74 105 -15 39 -31 79 -37 90 -5
11 -15 40 -22 65 l-13 45 -2685 3 -2686 2 -35 -52z m1547 -298 c-3 -5 -14 -10
-23 -10 -15 0 -15 2 -2 10 20 13 33 13 25 0z m-1617 -445 c-12 -26 -19 -29
-55 -19 -33 9 -28 21 15 32 53 14 53 14 40 -13z m7 -45 c-3 -5 -13 -10 -21
-10 -8 0 -12 5 -9 10 3 6 13 10 21 10 8 0 12 -4 9 -10z"/>
<path d="M11788 9575 c-10 -13 -18 -33 -18 -44 0 -11 -4 -23 -10 -26 -15 -9
-12 -92 4 -123 8 -15 24 -36 36 -47 32 -29 43 -63 41 -126 -2 -50 1 -59 24
-77 21 -16 38 -20 91 -18 60 2 67 0 83 -24 19 -25 33 -63 36 -90 1 -8 2 -26 3
-39 1 -13 17 -38 35 -55 18 -17 50 -65 70 -107 53 -106 89 -139 161 -146 31
-3 59 -10 62 -14 3 -5 14 -9 25 -9 10 0 19 -6 19 -14 0 -7 11 -22 25 -32 14
-10 25 -26 25 -34 0 -8 16 -25 35 -38 19 -12 35 -28 35 -36 0 -7 23 -25 50
-40 51 -28 65 -42 31 -31 -22 7 -53 -4 -46 -15 3 -5 1 -11 -5 -15 -5 -3 -10
-19 -10 -35 0 -30 30 -60 61 -60 26 0 52 38 53 75 1 26 5 34 15 30 10 -4 8 2
-5 16 -19 22 -19 22 3 10 30 -16 38 -14 22 6 -8 9 -9 14 -3 10 6 -3 22 -8 37
-11 l27 -5 0 595 0 594 -497 0 -498 -1 -17 -24z"/>
<path d="M1360 9425 c-11 -13 -11 -19 3 -32 21 -21 49 -9 45 19 -4 28 -30 35
-48 13z"/>
<path d="M9543 9385 c-20 -23 -15 -53 12 -71 23 -15 27 -15 50 0 27 18 33 54
13 74 -16 16 -60 15 -75 -3z"/>
<path d="M10990 9335 c0 -10 7 -15 18 -13 21 4 19 22 -2 26 -10 2 -16 -3 -16
-13z"/>
<path d="M11360 9326 c0 -8 4 -17 9 -20 11 -7 33 18 24 27 -12 12 -33 7 -33
-7z"/>
<path d="M1094 9285 c-10 -25 4 -45 30 -45 27 0 42 26 25 46 -15 19 -48 18
-55 -1z"/>
<path d="M2465 9257 c-23 -17 -14 -47 15 -47 26 0 37 27 18 46 -12 12 -17 12
-33 1z"/>
<path d="M6096 9224 c-29 -28 -16 -56 26 -59 30 -3 43 22 28 50 -15 29 -32 32
-54 9z"/>
<path d="M11581 9116 c-9 -10 -8 -16 3 -25 10 -9 16 -8 25 3 9 10 8 16 -3 25
-10 9 -16 8 -25 -3z"/>
<path d="M5822 9098 c-21 -21 -14 -66 12 -83 47 -31 93 22 62 70 -18 27 -54
33 -74 13z"/>
<path d="M5648 9093 c-10 -2 -18 -9 -18 -14 0 -20 21 -49 35 -49 21 0 35 32
24 53 -10 17 -12 18 -41 10z"/>
<path d="M1274 9035 c-8 -21 2 -45 19 -45 8 0 20 7 27 15 10 12 10 18 0 30 -7
8 -19 15 -27 15 -7 0 -16 -7 -19 -15z"/>
<path d="M2627 8996 c-8 -21 16 -39 31 -24 8 8 9 15 1 25 -15 17 -25 17 -32
-1z"/>
<path d="M10110 8985 c-11 -13 -11 -19 3 -33 20 -19 41 -5 35 24 -4 24 -22 28
-38 9z"/>
<path d="M6703 8974 c-8 -21 13 -42 28 -27 13 13 5 43 -11 43 -6 0 -13 -7 -17
-16z"/>
<path d="M11284 8949 c-10 -17 13 -36 27 -22 12 12 4 33 -11 33 -5 0 -12 -5
-16 -11z"/>
<path d="M6145 8930 c-8 -14 3 -30 21 -30 8 0 14 9 14 20 0 21 -24 28 -35 10z"/>
<path d="M4710 8870 c-21 -21 -28 -46 -9 -35 6 4 9 0 7 -11 -2 -16 3 -19 32
-19 29 0 34 3 32 19 -2 11 1 15 7 11 6 -3 11 -1 11 4 0 14 -37 51 -50 51 -5 0
-19 -9 -30 -20z"/>
<path d="M6953 8873 c-18 -6 -16 -50 1 -56 8 -3 22 1 33 8 28 21 -1 62 -34 48z"/>
<path d="M8032 8828 c-17 -17 -15 -58 4 -65 36 -13 65 33 41 65 -12 15 -30 15
-45 0z m35 -4 c-3 -3 -12 -4 -19 -1 -8 3 -5 6 6 6 11 1 17 -2 13 -5z"/>
<path d="M5766 8814 c-9 -22 17 -49 39 -40 10 3 15 15 13 28 -4 29 -42 37 -52
12z"/>
<path d="M9513 8810 c-100 -60 -90 -186 20 -254 39 -24 58 -29 107 -29 45 0
66 5 82 19 29 27 48 74 38 98 -5 12 -11 38 -15 58 -4 28 -17 47 -50 75 -24 20
-52 38 -62 39 -10 2 -34 5 -53 8 -25 4 -45 0 -67 -14z"/>
<path d="M4233 8799 c-23 -23 12 -64 41 -46 3 1 16 -9 29 -22 14 -12 30 -20
36 -16 20 12 11 35 -16 48 -15 6 -36 20 -45 30 -21 20 -30 21 -45 6z"/>
<path d="M914 8776 c-10 -26 4 -48 28 -44 17 2 23 10 23 28 0 18 -6 26 -23 28
-13 2 -25 -3 -28 -12z"/>
<path d="M11890 8771 c0 -15 6 -21 21 -21 25 0 22 33 -4 38 -12 2 -17 -3 -17
-17z"/>
<path d="M8430 8706 c-13 -17 -6 -36 15 -36 19 0 26 27 11 39 -10 8 -17 7 -26
-3z"/>
<path d="M5184 8645 c-9 -23 3 -45 25 -45 23 0 35 28 20 46 -15 18 -38 18 -45
-1z"/>
<path d="M9988 8649 c-15 -4 -29 -4 -32 -1 -3 3 -17 -7 -31 -22 -14 -15 -29
-24 -35 -21 -5 3 -12 -6 -16 -20 -3 -14 -12 -25 -20 -25 -8 0 -14 -4 -14 -9 0
-5 -12 -24 -27 -42 -21 -25 -28 -44 -30 -82 -2 -53 6 -65 64 -106 29 -20 35
-21 60 -8 15 8 33 12 40 10 6 -2 31 19 55 46 23 28 49 51 56 51 8 0 12 5 10
12 -2 6 6 22 19 36 18 20 22 34 20 78 -4 77 -54 121 -119 103z"/>
<path d="M2560 8630 c-44 -44 -3 -106 60 -91 36 10 41 72 8 95 -30 21 -44 20
-68 -4z"/>
<path d="M497 8632 c-24 -5 -40 -48 -27 -71 14 -28 48 -33 71 -10 29 29 -4 89
-44 81z"/>
<path d="M12146 8573 c-3 -4 -6 -15 -6 -25 0 -24 33 -21 38 3 3 17 -21 33 -32
22z"/>
<path d="M4442 8533 c4 -21 33 -25 33 -3 0 8 -8 16 -18 18 -14 3 -18 -1 -15
-15z"/>
<path d="M10352 8537 c-29 -37 -15 -77 27 -77 16 0 33 6 39 13 10 13 10 52 -1
63 -12 13 -56 13 -65 1z"/>
<path d="M9218 8529 c-21 -12 -24 -69 -6 -87 18 -18 63 -14 83 8 13 14 16 28
11 55 -6 31 -10 35 -39 35 -18 0 -40 -5 -49 -11z"/>
<path d="M12424 8488 c-16 -26 -10 -56 13 -61 25 -5 38 2 45 23 13 36 -39 69
-58 38z"/>
<path d="M2875 8460 c-3 -6 -25 -9 -49 -9 -38 2 -47 -2 -84 -42 -61 -63 -105
-148 -142 -272 -35 -117 -35 -146 1 -203 20 -33 22 -34 78 -30 72 6 130 42
170 105 47 76 88 167 101 223 6 29 17 70 23 91 7 27 7 44 -2 63 -6 14 -9 30
-6 35 6 9 -52 49 -72 49 -6 0 -15 -5 -18 -10z"/>
<path d="M2034 8435 c-8 -21 2 -45 19 -45 21 0 38 25 31 44 -8 20 -43 21 -50
1z"/>
<path d="M7330 8436 c0 -8 4 -17 9 -20 11 -7 33 18 24 27 -12 12 -33 7 -33 -7z"/>
<path d="M4264 8416 c-9 -24 4 -48 23 -44 12 2 18 12 18 28 0 29 -32 41 -41
16z"/>
<path d="M1762 8401 c-20 -12 -10 -46 13 -46 14 0 20 7 20 24 0 27 -13 35 -33
22z"/>
<path d="M3772 8383 c-13 -26 -4 -43 23 -43 27 0 40 26 24 46 -16 19 -37 17
-47 -3z"/>
<path d="M5151 8376 c-12 -14 -5 -26 16 -26 15 0 18 26 4 34 -5 3 -14 0 -20
-8z"/>
<path d="M1024 8345 c-8 -19 3 -35 26 -35 19 0 30 17 23 38 -6 17 -42 15 -49
-3z"/>
<path d="M5146 8321 c-7 -11 18 -33 27 -24 4 3 7 12 7 20 0 15 -26 18 -34 4z"/>
<path d="M9500 8260 c0 -13 7 -20 20 -20 13 0 20 7 20 20 0 13 -7 20 -20 20
-13 0 -20 -7 -20 -20z"/>
<path d="M6106 8204 c-4 -10 -2 -22 3 -27 15 -15 46 -3 46 18 0 26 -40 33 -49
9z"/>
<path d="M10072 8208 c2 -9 -8 -25 -22 -36 -20 -17 -23 -23 -12 -33 6 -7 12
-25 12 -40 0 -30 15 -46 50 -52 14 -3 30 -6 35 -7 22 -5 34 1 40 21 5 15 10
17 20 9 10 -9 15 -5 20 18 13 60 -36 120 -105 129 -34 5 -41 3 -38 -9z"/>
<path d="M10722 8208 c-6 -6 -12 -25 -12 -40 0 -23 -4 -28 -25 -28 -42 0 -59
-69 -21 -83 22 -9 56 22 56 49 0 19 5 24 23 24 13 0 31 8 40 18 32 35 -27 94
-61 60z"/>
<path d="M12404 8176 c-10 -26 4 -48 28 -44 17 2 23 10 23 28 0 18 -6 26 -23
28 -13 2 -25 -3 -28 -12z"/>
<path d="M6354 8149 c-10 -17 13 -36 27 -22 12 12 4 33 -11 33 -5 0 -12 -5
-16 -11z"/>
<path d="M11846 8133 c-12 -12 -6 -33 9 -33 8 0 15 6 15 14 0 17 -14 28 -24
19z"/>
<path d="M2194 8095 c-15 -23 -15 -27 0 -50 11 -17 26 -25 44 -25 35 0 52 16
52 50 0 34 -17 50 -52 50 -18 0 -33 -8 -44 -25z"/>
<path d="M3056 8104 c-17 -17 -12 -63 8 -76 22 -15 65 -8 76 11 14 28 13 38
-10 61 -24 24 -53 26 -74 4z"/>
<path d="M9161 8110 c-16 -9 -6 -30 15 -30 15 0 20 25 6 34 -4 2 -14 1 -21 -4z"/>
<path d="M3574 8095 c-4 -9 -2 -21 4 -27 16 -16 47 -5 47 17 0 26 -42 34 -51
10z"/>
<path d="M4734 8039 c-10 -17 13 -36 27 -22 12 12 4 33 -11 33 -5 0 -12 -5
-16 -11z"/>
<path d="M4813 8005 c-7 -20 2 -29 21 -22 9 4 13 13 10 22 -8 19 -23 19 -31 0z"/>
<path d="M10515 7979 c-22 -3 -44 -5 -50 -2 -6 2 -20 -5 -30 -17 -10 -11 -23
-20 -28 -20 -12 0 -57 -48 -57 -61 0 -5 -18 -9 -41 -9 -24 0 -38 -4 -34 -10 3
-5 -3 -10 -14 -10 -12 0 -21 -4 -21 -10 0 -5 -7 -10 -16 -10 -8 0 -13 -4 -10
-9 3 -5 -1 -14 -9 -21 -21 -18 -19 -92 3 -120 14 -18 31 -23 77 -26 33 -2 62
0 65 4 12 17 49 31 55 22 3 -6 26 -10 50 -10 24 0 47 -4 50 -10 7 -12 85 -14
85 -2 0 4 12 12 28 18 38 15 66 108 51 174 -12 54 -55 120 -78 120 -10 0 -21
4 -26 8 -6 5 -28 5 -50 1z"/>
<path d="M8880 7955 c0 -8 9 -15 20 -15 11 0 20 7 20 15 0 8 -9 15 -20 15 -11
0 -20 -7 -20 -15z"/>
<path d="M677 7944 c-12 -13 -8 -42 8 -48 25 -9 46 5 43 28 -3 21 -37 34 -51
20z"/>
<path d="M5567 7943 c-13 -12 -7 -41 10 -47 9 -4 23 0 31 8 13 12 13 18 2 30
-13 17 -32 21 -43 9z"/>
<path d="M6018 7929 c-22 -13 -24 -72 -3 -89 21 -17 64 -16 82 3 9 8 16 28 16
43 0 45 -52 69 -95 43z"/>
<path d="M12642 7923 c4 -21 33 -25 33 -3 0 8 -8 16 -18 18 -14 3 -18 -1 -15
-15z"/>
<path d="M6467 7833 c-13 -12 -7 -41 10 -47 21 -8 48 17 40 38 -6 16 -38 22
-50 9z"/>
<path d="M6957 7833 c-13 -12 -7 -41 10 -47 21 -8 48 17 40 38 -6 16 -38 22
-50 9z"/>
<path d="M3137 7818 c-6 -18 11 -48 27 -48 20 0 37 25 30 44 -7 19 -50 22 -57
4z"/>
<path d="M10984 7812 c3 -6 1 -12 -5 -14 -9 -3 -9 -9 -1 -25 17 -31 67 -17 67
18 0 20 -6 25 -34 27 -20 2 -31 0 -27 -6z"/>
<path d="M2511 7750 c-49 -22 -77 -25 -117 -10 -19 8 -30 8 -38 0 -5 -5 -20
-10 -32 -10 -12 0 -27 -7 -34 -15 -7 -8 -18 -15 -25 -15 -7 0 -18 -6 -24 -14
-7 -8 -25 -18 -41 -21 -35 -8 -56 -31 -64 -71 -5 -22 -2 -35 9 -44 8 -7 22
-29 31 -49 8 -20 22 -50 31 -67 8 -18 12 -40 9 -50 -3 -11 1 -41 9 -68 8 -27
15 -69 15 -92 0 -38 -6 -51 -50 -99 -27 -30 -69 -93 -92 -140 -40 -82 -42 -84
-76 -83 -27 1 -41 -5 -60 -27 -22 -26 -24 -34 -17 -84 4 -31 7 -65 6 -76 0
-11 5 -38 13 -60 8 -22 17 -64 20 -92 5 -43 4 -53 -8 -53 -8 0 -16 -8 -18 -17
-2 -12 -15 -17 -43 -19 -46 -2 -94 -40 -112 -89 -8 -19 -11 -97 -9 -221 2
-190 2 -190 29 -226 15 -19 27 -45 27 -56 0 -18 -6 -22 -35 -22 -19 0 -35 -5
-35 -11 0 -8 -4 -9 -13 0 -8 6 -16 8 -19 5 -3 -3 -38 -6 -78 -7 -58 -2 -75 -7
-86 -22 -18 -25 -18 -70 1 -87 34 -31 45 -38 57 -38 15 0 43 -50 52 -90 3 -15
-5 -50 -20 -85 -34 -85 -42 -180 -18 -231 31 -66 85 -101 128 -84 20 7 25 6
29 -8 5 -26 84 59 96 105 6 21 15 99 21 174 5 75 15 148 21 163 18 39 94 57
133 30 10 -7 25 -10 32 -7 8 3 14 0 14 -6 0 -17 86 -13 104 5 27 26 20 69 -16
101 -18 16 -44 50 -57 76 -13 26 -31 49 -40 52 -10 3 -27 18 -38 33 -17 23
-21 47 -25 147 -3 66 -1 155 5 198 10 72 9 83 -12 143 -13 36 -21 68 -18 70 3
3 24 8 46 11 22 3 46 12 52 19 6 8 19 14 28 14 25 1 67 41 90 88 12 23 26 79
32 125 8 58 22 106 48 162 21 44 41 91 44 105 3 14 31 52 62 85 68 74 82 104
86 180 3 59 -18 155 -33 155 -4 0 -8 7 -8 15 0 8 -8 20 -19 27 -16 10 -17 16
-8 42 5 17 16 39 23 49 11 17 13 17 28 -5 9 -12 16 -18 16 -13 0 5 5 4 11 -2
6 -6 18 -9 25 -6 8 3 20 1 27 -5 15 -13 77 -6 94 11 25 25 10 152 -21 169 -8
5 -22 16 -31 24 -9 9 -25 14 -35 11 -13 -3 -20 0 -20 9 0 18 -6 18 -59 -6z"/>
<path d="M5370 7745 c-18 -21 -5 -47 22 -43 26 3 37 36 16 49 -18 12 -24 11
-38 -6z"/>
<path d="M7140 7731 c0 -37 -13 -53 -64 -75 -56 -25 -142 -116 -133 -140 8
-19 -23 -40 -63 -44 -19 -2 -39 -8 -44 -13 -13 -12 -137 -12 -168 0 -25 9
-237 25 -301 22 -21 -1 -63 -13 -94 -26 -31 -14 -63 -25 -72 -25 -10 0 -39 20
-67 45 -45 40 -65 52 -117 69 -18 6 -20 10 -33 61 -6 24 -8 26 -11 10 -11 -54
-25 -72 -66 -85 -31 -9 -65 -36 -143 -116 -96 -98 -105 -105 -157 -115 -47
-10 -62 -9 -102 7 -26 9 -52 26 -58 36 -7 10 -19 18 -28 18 -9 0 -19 6 -22 14
-4 11 -17 13 -49 9 -76 -11 -94 -24 -158 -120 -56 -85 -64 -93 -111 -108 -40
-14 -56 -15 -78 -5 -37 15 -75 -3 -92 -42 -16 -38 -92 -77 -178 -90 -94 -14
-141 -44 -174 -111 -40 -83 -43 -84 -147 -60 -8 1 -28 5 -43 7 -34 4 -39 9
-53 49 -12 33 -16 29 -28 -25 -4 -18 -20 -34 -48 -50 -25 -14 -49 -38 -61 -61
-11 -22 -29 -40 -43 -43 -30 -8 -30 -17 -1 -33 17 -9 23 -22 24 -47 1 -43 21
-94 45 -115 11 -10 16 -23 12 -33 -4 -11 -1 -16 10 -16 16 0 21 -12 9 -23 -3
-4 -12 -2 -20 4 -9 8 -17 8 -25 2 -7 -6 -40 -13 -74 -16 -33 -4 -68 -9 -77
-13 -15 -5 -102 -114 -109 -136 -5 -15 -62 -14 -78 2 -9 9 -24 32 -33 53 -10
20 -21 38 -25 38 -66 12 -88 -4 -78 -59 4 -20 8 -59 9 -86 2 -59 33 -88 92
-88 34 0 36 -2 31 -24 -4 -14 -2 -24 4 -24 20 0 -3 -56 -57 -138 -30 -46 -66
-108 -80 -138 -13 -30 -32 -59 -41 -64 -12 -8 -14 -13 -4 -16 14 -7 16 -40 2
-49 -18 -11 -11 -104 11 -153 19 -42 20 -52 10 -93 -17 -66 -42 -217 -44 -263
-2 -38 0 -41 48 -65 71 -37 82 -62 67 -150 -19 -111 -16 -142 23 -222 33 -70
35 -77 29 -149 -6 -65 -3 -83 14 -121 24 -51 44 -76 88 -106 50 -35 59 -69 39
-147 -9 -36 -15 -79 -13 -95 2 -21 -3 -35 -17 -45 -20 -14 -19 -15 6 -25 15
-5 36 -25 48 -44 11 -19 39 -47 61 -62 31 -22 44 -39 53 -72 12 -44 27 -58 27
-24 0 33 22 36 43 6 11 -15 38 -44 60 -64 l39 -36 -6 -74 c-6 -83 7 -128 45
-155 18 -12 47 -16 121 -16 92 0 98 -1 98 -21 0 -59 53 -82 65 -28 7 31 23 41
95 61 54 14 111 20 138 13 21 -5 68 -48 127 -117 24 -28 14 -106 -17 -129
l-21 -17 24 -7 c13 -4 54 -27 91 -51 l67 -45 7 -59 c7 -64 24 -72 25 -12 1 53
9 67 54 98 22 14 43 32 48 39 4 8 24 19 44 26 30 9 34 14 22 23 -8 6 -14 16
-14 23 0 27 18 24 53 -9 48 -47 76 -54 110 -32 15 10 32 23 37 30 6 7 30 20
55 28 47 16 79 11 137 -22 29 -16 74 -15 97 3 12 9 42 15 72 15 52 0 104 16
104 31 0 11 30 39 41 39 5 0 9 -9 9 -20 0 -11 8 -24 17 -27 10 -4 28 -19 41
-34 12 -16 47 -39 76 -53 53 -25 66 -43 66 -93 0 -13 5 -23 10 -23 6 0 10 13
10 30 0 42 19 78 46 84 29 8 134 107 134 127 0 10 16 21 41 28 23 7 51 23 63
35 26 28 63 41 79 28 7 -5 19 -10 27 -10 23 -1 82 -25 110 -44 37 -27 86 -23
106 7 15 24 15 29 -2 73 -10 26 -19 61 -21 77 -3 28 2 34 49 62 29 18 76 42
105 54 67 27 91 73 97 185 6 106 24 126 121 131 97 5 105 5 148 -1 20 -3 37
-2 38 2 0 4 2 16 4 27 2 12 -4 33 -14 49 -17 25 -17 31 -4 57 10 20 12 42 8
68 -10 58 14 95 78 125 75 34 81 44 74 122 -4 37 -11 72 -17 79 -6 7 -10 17
-9 21 2 9 -3 24 -22 73 -18 43 17 204 47 215 7 3 14 15 14 26 0 11 7 20 15 20
10 0 15 11 15 35 0 24 -5 35 -15 35 -8 0 -15 8 -15 17 0 9 -7 24 -15 33 -9 9
-21 43 -28 75 l-12 57 40 34 c22 19 48 36 58 40 9 3 17 12 17 20 0 12 7 14 33
8 39 -8 83 -8 97 1 24 15 31 57 14 83 -14 22 -21 24 -64 20 -46 -5 -50 -3 -82
35 -52 63 -100 106 -133 118 -111 41 -130 59 -156 147 -9 32 -27 56 -70 93
-74 64 -80 88 -38 146 26 37 30 51 25 81 -10 66 -67 82 -115 34 -15 -15 -30
-32 -32 -38 -2 -6 -21 -14 -42 -18 -35 -7 -38 -5 -48 23 -13 36 -24 33 -32 -8
-6 -30 -20 -35 -117 -44 -53 -4 -180 50 -180 77 0 19 -42 54 -70 58 -14 2 -29
13 -35 26 -5 12 -13 22 -17 22 -4 0 -21 30 -38 66 -22 49 -34 65 -46 60 -9 -3
-12 -2 -8 5 4 7 -3 9 -17 7 -17 -2 -27 4 -34 20 -13 30 -22 28 -30 -8 -6 -26
-11 -30 -40 -30 -34 0 -38 -4 -83 -75 -6 -11 -16 -30 -21 -41 -6 -12 -20 -29
-32 -37 -13 -10 -19 -22 -16 -31 8 -21 -21 -21 -52 0 -19 14 -38 15 -105 10
-76 -6 -84 -5 -102 15 -10 12 -37 35 -58 50 -53 40 -96 38 -148 -3 -89 -72
-104 -88 -122 -125 -10 -21 -22 -45 -27 -53 -5 -8 -13 -24 -18 -36 -7 -16 -22
-22 -62 -27 -30 -4 -66 -15 -80 -26 -15 -11 -49 -23 -77 -27 -44 -6 -51 -4
-61 14 -6 11 -11 30 -11 41 0 37 -17 22 -24 -19 -5 -33 -12 -43 -40 -56 -18
-9 -47 -38 -65 -65 -20 -30 -39 -49 -51 -49 -32 0 -31 -16 3 -28 29 -11 35
-20 65 -114 18 -57 33 -110 32 -118 0 -8 8 -28 17 -45 12 -22 17 -57 18 -130
2 -131 11 -174 41 -187 13 -6 33 -30 44 -53 24 -50 25 -55 4 -55 -13 0 -13 -3
-1 -27 30 -59 75 -159 82 -180 3 -12 18 -33 33 -45 15 -13 33 -31 40 -39 14
-19 6 -49 -14 -49 -24 0 -16 -17 11 -24 17 -4 33 -22 50 -57 19 -37 36 -54 60
-65 24 -10 37 -23 41 -42 12 -54 16 -62 25 -57 5 4 9 17 9 30 0 38 10 54 50
76 20 12 50 41 65 66 16 24 35 48 44 53 12 6 13 11 3 23 -18 21 -5 44 30 56
23 8 47 7 99 -6 62 -15 73 -15 122 -1 38 11 68 13 98 8 23 -4 53 -4 65 1 22 8
93 55 160 106 24 17 44 23 85 23 71 0 106 -17 120 -57 11 -35 29 -44 29 -15 0
29 16 43 51 47 40 3 69 14 69 25 0 5 6 15 13 22 19 19 47 78 47 100 0 10 5 18
10 18 6 0 10 15 9 32 -2 18 -2 49 0 68 l2 35 40 -44 c73 -81 119 -220 119
-362 0 -37 -1 -39 -21 -28 -17 9 -23 8 -30 -2 -6 -11 -11 -11 -21 -1 -17 17
-26 15 -33 -8 -4 -14 -12 -19 -23 -16 -25 8 -41 -36 -49 -134 -3 -47 -12 -97
-19 -112 -8 -15 -14 -43 -14 -63 0 -38 -22 -57 -43 -36 -8 8 -16 6 -30 -6 -18
-17 -19 -17 -28 0 -6 10 -14 15 -20 12 -5 -4 -9 5 -9 19 0 14 5 26 10 26 6 0
10 5 10 11 0 5 -5 7 -12 3 -7 -5 -9 -2 -6 7 3 8 9 21 12 30 4 9 -1 26 -12 39
-29 36 -66 22 -84 -32 -10 -33 -21 -47 -47 -59 -47 -22 -63 -46 -49 -73 6 -11
17 -25 25 -29 7 -5 11 -12 8 -18 -4 -5 -1 -9 6 -9 6 0 9 -8 6 -19 -2 -10 -1
-25 4 -32 4 -8 3 -19 -3 -26 -6 -7 -8 -24 -6 -38 3 -14 1 -28 -3 -31 -5 -3 -9
-13 -9 -23 0 -10 -7 -24 -15 -31 -16 -13 -18 -13 -175 20 -82 18 -185 31 -206
25 -11 -2 -21 -11 -21 -18 0 -15 -42 -78 -60 -90 -7 -4 -13 -15 -13 -23 0 -22
-61 -74 -87 -74 -35 0 -73 21 -73 41 0 10 -7 22 -16 27 -16 9 -38 43 -50 75
-3 9 -12 17 -20 17 -7 0 -18 9 -24 20 -6 11 -18 20 -26 20 -11 0 -13 6 -9 20
6 18 2 20 -41 20 -37 0 -45 -3 -36 -12 16 -16 15 -28 -3 -28 -8 0 -15 -9 -15
-19 0 -11 -9 -23 -20 -26 -11 -3 -20 -13 -20 -21 0 -8 -5 -14 -11 -14 -7 0 -9
-10 -7 -25 4 -19 1 -25 -13 -25 -11 0 -19 -9 -21 -22 -3 -21 -9 -23 -58 -24
-72 -1 -124 16 -128 44 -2 14 -18 28 -47 41 -68 30 -102 68 -110 126 -11 68
-46 143 -92 191 -21 22 -45 54 -53 70 -23 45 -90 119 -110 120 -9 1 -22 4 -29
8 -6 4 -11 0 -11 -11 -1 -19 -30 -64 -31 -47 0 14 -37 -103 -50 -163 -7 -29
-16 -53 -21 -53 -4 0 -8 -8 -8 -17 0 -10 -5 -35 -11 -56 l-10 -37 -46 32 c-47
34 -125 120 -136 149 -6 17 -1 23 66 84 20 18 37 37 37 42 0 4 9 19 19 32 10
14 17 31 14 38 -3 7 2 25 12 39 15 23 15 27 0 50 -10 16 -15 43 -14 79 2 45 6
57 26 70 17 11 23 25 23 50 0 42 -29 65 -82 65 -26 0 -41 6 -51 21 -16 22 -94
67 -130 75 -12 3 -43 7 -68 9 -50 3 -94 31 -80 49 5 6 5 33 -1 64 -8 40 -15
52 -29 52 -11 0 -19 5 -19 10 0 6 -11 10 -25 10 -14 0 -25 4 -25 9 0 5 -5 22
-12 38 -7 17 -10 70 -9 138 2 81 -2 126 -14 169 l-17 58 32 29 c17 16 39 29
49 29 9 0 29 12 43 28 23 23 27 36 26 82 -1 33 6 67 16 85 9 17 16 38 16 47 0
23 21 68 32 68 4 0 8 -4 8 -10 0 -5 5 -10 11 -10 6 0 23 -8 37 -19 15 -10 51
-27 79 -37 47 -16 54 -23 59 -51 9 -47 19 -48 33 -4 10 36 14 39 58 44 54 6
68 20 77 79 4 24 15 51 24 61 15 17 15 19 0 28 -14 8 -16 21 -12 75 6 82 -6
98 -82 115 -30 7 -54 18 -54 25 0 7 -6 15 -12 17 -8 4 1 18 25 39 21 18 68 61
104 95 59 56 113 87 113 65 0 -5 25 -14 56 -20 67 -14 124 3 124 37 0 11 5 23
10 26 6 3 10 15 10 26 0 10 4 27 9 37 5 9 12 25 15 34 3 10 20 19 43 23 21 4
65 13 97 21 47 11 61 12 67 2 4 -7 9 -10 11 -8 2 3 8 13 13 24 6 10 28 25 50
34 38 14 64 30 160 96 32 22 49 27 85 25 59 -4 84 5 101 39 20 38 27 42 91 42
45 0 61 -4 77 -21 30 -32 34 -71 8 -91 l-21 -16 27 -13 c15 -7 30 -24 34 -38
8 -30 47 -67 91 -83 26 -10 35 -21 46 -58 14 -45 18 -43 30 13 5 21 17 33 50
46 32 14 53 34 82 78 37 55 38 60 27 93 -7 19 -10 41 -7 49 2 7 -7 28 -20 46
-14 18 -23 35 -19 38 3 3 -6 9 -21 13 -14 3 -26 10 -26 14 0 5 -13 11 -30 15
-16 4 -30 10 -30 15 0 23 91 27 110 5 7 -8 21 -15 32 -15 11 0 26 -7 35 -15
12 -13 29 -15 84 -9 41 4 69 3 69 -3 0 -18 63 -56 100 -60 20 -3 64 3 97 11
76 20 146 21 122 3 -17 -14 -33 -46 -30 -63 4 -26 -19 -64 -39 -64 -30 0 -24
-17 10 -29 17 -6 34 -21 40 -36 12 -31 59 -74 82 -75 16 0 38 -46 38 -81 0
-11 5 -19 10 -19 6 0 10 11 10 24 0 41 17 73 43 80 27 6 87 63 87 82 0 6 10
18 22 26 21 14 21 16 6 32 -10 9 -20 32 -24 52 -6 34 -64 92 -107 107 -9 4
-20 20 -23 37 -8 38 -16 38 -32 0 -11 -23 -20 -30 -40 -29 -17 1 -21 3 -9 6 9
2 17 13 17 24 0 10 4 19 8 19 5 0 23 20 42 45 l34 45 74 0 c124 0 197 -18 232
-56 16 -19 30 -40 30 -48 0 -8 4 -16 8 -18 4 -1 18 -20 30 -40 26 -43 101 -95
146 -103 17 -3 82 -9 144 -15 101 -8 122 -14 185 -46 40 -21 88 -45 107 -55
49 -25 65 -53 45 -82 -19 -30 -13 -102 12 -129 16 -18 26 -20 90 -14 91 8 139
-12 216 -92 29 -31 70 -71 91 -89 42 -37 43 -56 7 -136 -12 -26 -24 -68 -27
-94 -4 -30 -14 -54 -26 -63 -19 -16 -19 -16 6 -29 13 -8 27 -24 30 -37 9 -33
51 -79 91 -98 24 -11 37 -26 42 -46 10 -37 27 -43 31 -12 3 22 40 45 66 41 6
-1 22 2 36 8 23 10 106 11 114 2 2 -2 11 -18 19 -35 15 -30 15 -33 -3 -49 -11
-10 -20 -24 -20 -32 0 -19 -42 -59 -58 -55 -9 2 -11 -1 -7 -8 5 -9 1 -10 -13
-6 -23 8 -62 -23 -62 -48 0 -35 68 -63 85 -36 20 33 73 -82 82 -177 7 -76 39
-142 101 -207 56 -59 63 -80 48 -152 -13 -61 -26 -91 -58 -134 -10 -14 -21
-45 -24 -70 -3 -24 -14 -54 -25 -68 -24 -31 -24 -90 0 -119 11 -13 23 -23 28
-23 4 0 17 -13 28 -27 18 -26 26 -67 41 -208 l6 -61 -46 -37 c-50 -42 -58 -70
-30 -112 11 -17 26 -25 45 -25 18 0 29 -5 29 -14 0 -8 7 -17 16 -20 14 -5 16
-17 12 -69 -7 -78 -50 -168 -113 -232 -25 -26 -45 -53 -45 -61 0 -22 -50 -64
-75 -64 -45 0 -83 -21 -94 -51 -14 -40 -2 -66 48 -109 22 -19 41 -42 41 -50 0
-9 7 -25 15 -37 11 -16 13 -28 6 -46 -5 -14 -7 -27 -4 -31 3 -3 3 -16 -1 -30
-6 -25 -63 -53 -99 -47 -9 1 -42 -3 -71 -9 -44 -9 -62 -19 -94 -54 -26 -29
-42 -56 -46 -83 -12 -70 -30 -107 -81 -169 -48 -59 -103 -97 -155 -109 -14 -2
-64 -7 -111 -9 -90 -4 -123 -16 -174 -60 -35 -30 -86 -56 -110 -56 -49 0 -95
-69 -95 -144 0 -25 -4 -48 -10 -51 -6 -3 -10 -19 -10 -36 0 -59 -62 -91 -125
-65 -22 9 -66 16 -107 16 -78 0 -125 -19 -173 -70 -33 -36 -76 -60 -149 -84
l-49 -17 -34 36 c-39 42 -83 47 -111 13 -28 -35 -83 -88 -91 -88 -4 0 -13 -10
-18 -23 -6 -14 -38 -36 -76 -55 -36 -18 -88 -53 -115 -77 -53 -48 -71 -50 -92
-9 -7 13 -21 24 -31 24 -9 0 -19 7 -22 15 -8 19 -71 45 -112 45 -39 0 -102
-45 -112 -80 -3 -14 -12 -29 -19 -35 -10 -8 -9 -22 7 -70 10 -33 19 -72 19
-87 0 -15 4 -29 9 -33 6 -3 9 -22 7 -43 -6 -98 84 -172 210 -172 66 0 100 15
112 49 25 69 48 110 64 114 10 3 20 2 23 -3 9 -14 79 -47 116 -54 61 -11 97 3
163 63 33 31 78 64 100 74 21 10 60 36 87 59 47 39 51 41 101 35 29 -3 94 0
145 7 74 9 95 9 109 -1 20 -14 72 -17 91 -5 17 11 35 62 35 97 -1 27 5 34 53
59 30 15 76 50 103 76 77 76 111 85 157 43 33 -31 91 -63 113 -63 20 0 32 -24
45 -85 5 -25 12 -8 22 48 5 30 12 40 38 51 18 7 45 29 60 47 15 19 31 39 37
45 5 7 15 14 22 16 11 4 11 8 -1 21 -19 23 -4 137 18 137 3 0 24 -6 45 -14 46
-16 70 -11 89 18 8 12 38 31 66 44 28 12 73 32 101 43 45 20 110 83 110 107 0
15 42 116 54 129 6 7 21 14 33 16 12 2 26 6 29 10 4 4 18 7 30 7 46 0 119 86
137 160 3 14 29 51 56 84 35 41 52 71 57 100 9 55 39 113 66 127 12 7 42 11
65 10 54 -2 72 23 48 69 -8 16 -16 31 -18 32 -1 2 15 25 36 52 49 64 50 103 3
152 -58 62 -57 119 4 182 26 27 31 39 25 60 -10 45 -5 85 14 107 10 11 27 36
36 54 21 42 16 126 -14 241 -21 83 -37 268 -24 286 4 6 31 22 58 36 28 13 57
36 65 51 13 24 13 32 -2 74 -13 36 -14 50 -5 61 18 23 18 54 0 68 -21 15 -52
8 -71 -15 -10 -13 -12 -6 -8 44 3 33 8 77 11 97 5 28 1 52 -15 91 -20 48 -21
59 -11 106 19 92 12 177 -18 201 -45 36 -67 122 -38 152 55 56 60 103 17 167
-33 49 -38 85 -15 128 9 15 20 40 25 55 6 17 22 33 42 41 l33 13 -31 11 c-26
9 -32 18 -43 67 -7 30 -23 76 -37 101 -13 25 -24 55 -24 65 0 24 -38 60 -62
60 -10 0 -34 -16 -53 -35 -19 -19 -35 -32 -35 -29 0 2 -9 0 -20 -6 -16 -9 -22
-8 -26 5 -3 8 -11 15 -18 15 -13 1 -76 80 -100 127 -17 35 -11 62 26 112 30
40 23 80 -26 145 -24 32 -49 76 -55 97 -14 46 -36 63 -110 84 -31 9 -63 21
-71 26 -8 5 -23 12 -32 15 -17 6 -23 30 -18 82 1 13 -5 33 -13 45 -15 23 -15
26 1 97 7 28 20 51 36 63 28 20 34 58 12 76 -7 6 -31 13 -52 15 -21 2 -56 13
-76 25 -31 19 -39 30 -49 77 -13 59 -26 70 -31 27 -2 -23 -8 -28 -33 -30 -21
-1 -41 -14 -70 -47 -22 -24 -52 -48 -68 -51 -24 -6 -29 -3 -42 26 -50 111 -90
145 -184 156 -35 4 -55 12 -61 23 -11 20 -121 100 -163 118 -35 15 -131 16
-159 1 -12 -6 -39 -8 -70 -4 -41 6 -48 10 -42 24 4 9 9 28 11 43 9 51 -65 91
-97 53 -14 -17 -21 -105 -8 -105 4 0 5 -7 2 -15 -4 -8 -14 -15 -24 -15 -19 0
-34 25 -24 41 3 5 0 9 -6 9 -7 0 -9 12 -6 35 4 25 0 44 -16 71 -20 34 -20 37
-5 64 21 35 21 54 1 74 -21 22 -28 20 -62 -14 -17 -16 -40 -30 -51 -30 -22 0
-41 27 -41 59 0 12 -4 21 -10 21 -5 0 -10 -9 -10 -19z m-556 -3395 c-6 -16
-34 -30 -34 -18 0 10 22 32 32 32 4 0 5 -6 2 -14z"/>
<path d="M12350 7715 c0 -8 7 -15 15 -15 8 0 15 7 15 15 0 8 -7 15 -15 15 -8
0 -15 -7 -15 -15z"/>
<path d="M350 7706 c-18 -23 -8 -59 22 -75 24 -14 28 -14 47 3 23 21 27 56 9
74 -17 17 -63 15 -78 -2z"/>
<path d="M767 7713 c-12 -11 -7 -41 7 -46 21 -8 48 16 40 36 -6 17 -35 23 -47
10z"/>
<path d="M2057 7703 c-13 -12 -7 -43 9 -43 8 0 12 -5 8 -11 -4 -8 0 -8 15 0
22 12 26 28 13 46 -9 12 -36 17 -45 8z"/>
<path d="M6821 7686 c-15 -16 -29 -22 -46 -18 -20 3 -25 0 -25 -16 0 -23 46
-37 58 -17 4 7 18 15 32 19 14 3 20 3 14 0 -15 -6 -1 -74 18 -85 18 -12 24
-11 42 7 22 22 20 40 -9 62 -13 11 -29 31 -35 46 -12 32 -20 33 -49 2z"/>
<path d="M1700 7646 c-18 -22 -5 -48 22 -44 17 2 23 10 23 28 0 29 -26 38 -45
16z"/>
<path d="M6344 7619 c-25 -27 -6 -73 31 -77 43 -5 70 39 46 76 -13 21 -58 21
-77 1z"/>
<path d="M7730 7621 c0 -24 37 -48 52 -33 18 18 4 47 -25 50 -22 3 -27 -1 -27
-17z"/>
<path d="M9793 7603 c-21 -7 -15 -33 7 -33 11 0 20 6 20 14 0 18 -11 25 -27
19z"/>
<path d="M5411 7517 c-16 -16 -14 -62 3 -77 39 -31 100 23 73 64 -15 22 -59
30 -76 13z"/>
<path d="M10815 7486 c-15 -11 -23 -11 -33 -3 -17 13 -27 -1 -43 -56 -12 -45
-6 -80 22 -126 31 -52 129 -83 129 -41 0 11 7 20 15 20 42 0 45 145 4 185 -32
31 -69 40 -94 21z"/>
<path d="M8256 7469 c-35 -27 -37 -90 -4 -113 34 -24 73 -20 97 10 28 35 26
69 -4 99 -30 30 -54 31 -89 4z"/>
<path d="M2806 7453 c-12 -12 12 -58 32 -61 26 -4 40 23 25 47 -9 15 -47 24
-57 14z"/>
<path d="M3736 7441 c-7 -11 18 -33 27 -24 4 3 7 12 7 20 0 15 -26 18 -34 4z"/>
<path d="M4952 7433 c2 -10 10 -18 18 -18 8 0 16 8 18 18 2 12 -3 17 -18 17
-15 0 -20 -5 -18 -17z"/>
<path d="M4427 7430 c-3 -8 -8 -42 -11 -75 -6 -72 -24 -91 -94 -100 -89 -12
-92 -19 -11 -30 40 -5 49 -11 73 -47 19 -29 29 -60 33 -105 3 -35 10 -63 14
-63 5 0 9 9 9 20 0 46 22 120 36 120 8 0 24 16 35 35 17 28 29 36 60 41 43 7
43 24 0 24 -15 0 -48 10 -72 23 -44 23 -44 24 -55 98 -6 41 -13 67 -17 59z"/>
<path d="M517 7383 c-4 -3 -7 -17 -7 -30 0 -18 5 -23 25 -23 14 0 28 7 31 15
11 27 -30 58 -49 38z"/>
<path d="M1839 7294 c-16 -20 -20 -55 -7 -71 16 -20 66 -16 78 6 14 28 13 38
-10 61 -24 24 -43 25 -61 4z"/>
<path d="M312 7283 c5 -26 38 -29 38 -4 0 15 -6 21 -21 21 -14 0 -19 -5 -17
-17z"/>
<path d="M10356 7248 c-21 -29 -20 -41 2 -61 26 -24 59 -21 77 7 37 55 -41
109 -79 54z"/>
<path d="M11730 7176 c0 -8 4 -17 9 -20 11 -7 33 18 24 27 -12 12 -33 7 -33
-7z"/>
<path d="M103 7138 c-18 -11 -33 -15 -33 -9 0 6 -16 11 -35 11 l-35 0 0 -114
0 -114 33 5 c59 8 105 23 117 38 6 8 14 34 17 57 3 24 14 55 24 70 23 32 24
42 3 62 -20 21 -52 19 -91 -6z"/>
<path d="M11010 7139 c-19 -12 -37 -26 -39 -31 -1 -5 -9 -2 -15 8 -12 15 -15
15 -46 -1 -31 -16 -92 -15 -136 2 -8 3 -14 -1 -14 -9 0 -8 -15 -19 -34 -26
-34 -13 -36 -15 -55 -106 -12 -56 3 -84 48 -91 57 -9 101 -25 122 -46 10 -10
26 -19 35 -19 9 0 27 -11 40 -25 43 -47 156 -24 167 34 3 14 11 49 17 76 8 37
7 62 -2 98 -9 36 -9 50 0 59 16 16 15 71 0 86 -18 18 -49 15 -88 -9z"/>
<path d="M12451 7116 c-9 -10 -9 -16 -1 -21 17 -10 37 12 24 25 -8 8 -15 6
-23 -4z"/>
<path d="M1264 6965 c-9 -23 3 -45 25 -45 21 0 33 22 25 45 -4 8 -15 15 -25
15 -11 0 -22 -7 -25 -15z"/>
<path d="M3756 6941 c-7 -11 18 -33 27 -24 4 3 7 12 7 20 0 15 -26 18 -34 4z"/>
<path d="M9230 6935 c0 -10 7 -15 18 -13 21 4 19 22 -2 26 -10 2 -16 -3 -16
-13z"/>
<path d="M8638 6904 c-11 -23 -10 -29 11 -45 33 -27 53 -22 64 16 8 26 -2 40
-36 49 -23 5 -29 2 -39 -20z"/>
<path d="M3934 6896 c-10 -26 4 -48 28 -44 17 2 23 10 23 28 0 18 -6 26 -23
28 -13 2 -25 -3 -28 -12z"/>
<path d="M11395 6883 c-20 -19 -19 -36 3 -56 21 -19 42 -22 42 -7 0 6 6 9 13
8 11 -3 12 18 2 48 -6 19 -44 23 -60 7z"/>
<path d="M9286 6811 c-7 -11 18 -33 27 -24 4 3 7 12 7 20 0 15 -26 18 -34 4z"/>
<path d="M2636 6794 c-10 -26 19 -52 42 -38 9 6 17 20 17 30 0 26 -50 32 -59
8z"/>
<path d="M6322 6757 c-17 -20 -8 -50 17 -54 27 -4 51 45 29 59 -19 11 -34 10
-46 -5z"/>
<path d="M350 6745 c-17 -21 -5 -45 24 -45 27 0 42 26 25 46 -15 18 -33 18
-49 -1z"/>
<path d="M12486 6753 c-12 -12 -6 -43 9 -43 8 0 15 9 15 19 0 21 -13 34 -24
24z"/>
<path d="M1755 6720 c-13 -20 5 -49 27 -45 24 5 38 23 32 39 -6 15 -51 19 -59
6z"/>
<path d="M12047 6717 c-8 -21 8 -39 29 -35 27 5 25 42 -2 46 -12 2 -24 -3 -27
-11z"/>
<path d="M11046 6695 c-48 -17 -56 -25 -72 -71 -25 -73 -27 -126 -5 -185 22
-57 77 -119 107 -119 10 0 25 -7 35 -16 35 -31 133 15 127 60 -1 12 5 34 15
49 20 31 16 67 -19 153 -20 48 -35 68 -72 95 -64 46 -72 49 -116 34z"/>
<path d="M10610 6684 c-32 -37 28 -94 66 -63 17 14 18 51 2 67 -17 17 -53 15
-68 -4z"/>
<path d="M8911 6658 c-10 -28 4 -49 26 -41 11 5 14 3 8 -6 -5 -9 -2 -12 11 -9
19 3 27 38 17 65 -9 22 -53 15 -62 -9z"/>
<path d="M8977 6596 c-8 -19 15 -37 32 -26 17 10 7 40 -13 40 -7 0 -16 -6 -19
-14z"/>
<path d="M7230 6551 c-5 -11 -10 -26 -10 -34 0 -20 33 -47 57 -47 41 0 69 60
41 88 -20 20 -76 15 -88 -7z"/>
<path d="M2954 6549 c-8 -14 11 -33 25 -25 16 10 13 36 -3 36 -8 0 -18 -5 -22
-11z"/>
<path d="M5340 6529 c0 -33 -17 -56 -47 -63 -39 -8 -55 -24 -81 -80 -13 -27
-31 -50 -42 -53 -28 -7 -25 -20 5 -27 15 -4 30 -18 36 -32 14 -37 44 -74 84
-101 19 -13 38 -36 41 -51 11 -44 16 -46 31 -11 l14 33 24 -36 c25 -37 43 -48
79 -48 46 0 59 46 31 113 -20 48 -19 111 1 132 15 15 15 17 -5 31 -11 8 -21
23 -21 32 -1 24 -54 80 -84 88 -18 4 -28 17 -37 50 -14 46 -29 58 -29 23z"/>
<path d="M5746 6531 c-19 -20 -13 -47 14 -61 13 -7 22 -5 34 9 23 25 20 38
-11 50 -21 8 -22 10 -5 7 12 -2 20 0 16 5 -9 15 -30 10 -48 -10z"/>
<path d="M11346 6514 c-21 -20 -20 -37 2 -57 34 -31 74 19 48 61 -10 17 -31
15 -50 -4z"/>
<path d="M6548 6509 c-21 -12 -24 -59 -6 -77 19 -19 55 -14 72 9 16 23 12 47
-12 67 -19 14 -31 15 -54 1z"/>
<path d="M1501 6487 c-25 -31 13 -66 46 -42 14 11 16 18 7 32 -14 23 -38 28
-53 10z"/>
<path d="M650 6475 c-18 -21 -4 -47 22 -43 29 4 35 34 10 47 -15 8 -23 7 -32
-4z"/>
<path d="M7677 6395 c-3 -16 -9 -49 -12 -72 -5 -30 -12 -44 -26 -48 -11 -4
-25 -18 -31 -31 -6 -14 -23 -27 -37 -30 -95 -22 -97 -26 -18 -39 27 -4 40 -13
47 -29 4 -13 20 -32 34 -42 20 -15 28 -32 36 -78 5 -32 11 -61 14 -63 2 -2 9
27 16 65 10 59 15 71 33 76 12 3 30 19 40 36 10 17 30 32 45 36 55 12 57 16
15 29 -24 7 -54 26 -69 44 -14 17 -32 31 -39 31 -9 0 -16 17 -20 48 -4 26 -10
58 -14 72 l-8 25 -6 -30z"/>
<path d="M7035 6399 c6 -9 3 -11 -8 -6 -34 13 -49 -56 -16 -74 27 -14 58 -2
65 26 7 28 1 41 -28 56 -16 9 -19 8 -13 -2z"/>
<path d="M5690 6380 c-40 -40 -14 -100 43 -100 53 0 73 85 27 110 -28 15 -48
12 -70 -10z"/>
<path d="M6182 6388 c-5 -7 -13 -23 -16 -35 -13 -43 60 -83 92 -51 17 17 15
64 -4 82 -19 19 -58 21 -72 4z"/>
<path d="M9984 6389 c-10 -17 13 -36 27 -22 12 12 4 33 -11 33 -5 0 -12 -5
-16 -11z"/>
<path d="M10546 6294 c-9 -22 17 -49 39 -40 10 3 15 15 13 28 -4 29 -42 37
-52 12z"/>
<path d="M7295 6260 c-4 -7 -3 -16 3 -22 14 -14 45 -2 40 15 -6 16 -34 21 -43
7z"/>
<path d="M6720 6240 c0 -13 7 -20 20 -20 13 0 20 7 20 20 0 13 -7 20 -20 20
-13 0 -20 -7 -20 -20z"/>
<path d="M7168 6238 c-28 -22 -31 -55 -9 -77 12 -12 28 -21 36 -21 18 0 55 35
55 53 0 36 -55 66 -82 45z"/>
<path d="M11246 6198 c-32 -75 -16 -150 43 -218 24 -27 31 -31 31 -17 0 16 3
16 33 -5 52 -37 95 -42 148 -16 40 19 65 64 55 100 -13 52 -131 173 -177 182
-48 9 -66 7 -83 -9 -13 -14 -16 -13 -25 2 -8 16 -12 13 -25 -19z"/>
<path d="M11826 6183 c-9 -21 16 -46 37 -37 9 3 17 17 17 30 0 19 -5 24 -24
24 -13 0 -27 -8 -30 -17z"/>
<path d="M654 6155 c-8 -21 2 -45 19 -45 21 0 38 25 31 44 -8 20 -43 21 -50 1z"/>
<path d="M2506 6154 c-7 -19 10 -44 29 -44 19 0 36 25 29 44 -3 9 -16 16 -29
16 -13 0 -26 -7 -29 -16z"/>
<path d="M2670 6130 c0 -15 5 -20 18 -18 9 2 17 10 17 18 0 8 -8 16 -17 18
-13 2 -18 -3 -18 -18z"/>
<path d="M3426 6061 c-9 -93 -39 -126 -122 -137 -62 -7 -56 -24 9 -24 31 0 46
-7 72 -35 30 -30 35 -43 41 -104 3 -39 10 -69 14 -66 4 2 10 32 13 65 5 55 9
65 44 95 22 20 54 37 76 41 52 9 56 22 7 30 -46 8 -112 55 -122 87 -3 12 -7
38 -7 57 -2 69 -18 63 -25 -9z"/>
<path d="M5032 6058 c-31 -31 6 -96 47 -83 12 3 26 15 32 26 23 43 -44 92 -79
57z"/>
<path d="M278 6035 c-4 -20 -1 -26 19 -31 29 -8 46 6 41 32 -2 12 -13 20 -29
22 -22 3 -27 -2 -31 -23z"/>
<path d="M1162 6001 c-21 -13 -10 -46 16 -49 27 -4 40 22 22 43 -14 17 -20 18
-38 6z"/>
<path d="M12124 5945 c-8 -19 3 -35 26 -35 19 0 30 17 23 38 -6 17 -42 15 -49
-3z"/>
<path d="M10840 5900 c-18 -4 -25 -13 -25 -30 0 -17 7 -26 25 -30 29 -8 50 5
50 30 0 25 -21 38 -50 30z"/>
<path d="M11230 5865 c0 -12 -6 -15 -19 -10 -34 10 -69 -6 -95 -44 -32 -45
-34 -98 -6 -134 11 -14 20 -28 20 -31 0 -4 10 -20 21 -36 19 -25 21 -37 15
-89 -15 -130 68 -208 161 -151 43 26 94 134 105 220 2 18 8 24 22 22 14 -3 17
1 12 13 -3 9 -6 28 -6 42 l0 25 -20 -23 c-18 -23 -19 -23 -20 -4 0 15 -10 24
-32 30 -27 8 -35 18 -45 54 -13 46 -38 79 -85 113 -25 17 -28 17 -28 3z"/>
<path d="M7855 5823 c-11 -77 -15 -88 -38 -98 -12 -6 -26 -20 -32 -32 -7 -17
-24 -25 -62 -33 -61 -13 -62 -25 -1 -33 23 -3 44 -11 47 -18 5 -16 43 -55 59
-60 7 -2 18 -35 25 -74 15 -74 19 -70 32 26 4 35 12 49 29 59 13 7 30 23 37
36 7 14 24 27 38 30 14 3 35 9 46 14 17 6 14 9 -18 15 -24 5 -54 23 -83 50
-40 38 -46 50 -53 99 -10 73 -17 78 -26 19z"/>
<path d="M7398 5853 c-25 -6 -42 -56 -28 -83 17 -32 79 -25 99 12 15 25 14 29
-8 52 -24 26 -31 28 -63 19z"/>
<path d="M12580 5750 c0 -13 5 -20 13 -17 6 2 12 10 12 17 0 7 -6 15 -12 18
-8 2 -13 -5 -13 -18z"/>
<path d="M11542 5735 c-11 -8 -22 -11 -26 -8 -3 3 -6 1 -6 -5 0 -6 -7 -18 -16
-27 -11 -11 -14 -24 -9 -42 5 -21 8 -24 16 -12 7 11 9 11 9 0 0 -7 6 -11 15
-8 8 4 17 2 20 -3 18 -30 105 15 105 53 0 44 -71 77 -108 52z"/>
<path d="M10117 5733 c-4 -3 -7 -12 -7 -20 0 -15 26 -18 34 -4 7 11 -18 33
-27 24z"/>
<path d="M440 5606 c-18 -22 -5 -48 22 -44 17 2 23 10 23 28 0 29 -26 38 -45
16z"/>
<path d="M861 5586 c-12 -14 -5 -26 16 -26 15 0 18 26 4 34 -5 3 -14 0 -20 -8z"/>
<path d="M12134 5575 c-8 -19 3 -35 26 -35 19 0 34 25 24 41 -8 14 -44 10 -50
-6z"/>
<path d="M10037 5574 c-9 -10 2 -24 19 -24 8 0 14 7 14 15 0 15 -21 21 -33 9z"/>
<path d="M4394 5553 c-16 -17 -8 -40 18 -54 16 -9 19 -8 13 2 -6 9 -4 11 7 6
23 -8 28 1 17 32 -11 30 -33 36 -55 14z"/>
<path d="M3490 5540 c-18 -4 -25 -13 -25 -30 0 -17 7 -26 25 -30 29 -8 50 5
50 30 0 25 -21 38 -50 30z"/>
<path d="M954 5519 c-8 -14 11 -33 25 -25 6 4 11 14 11 22 0 16 -26 19 -36 3z"/>
<path d="M4690 5510 c-25 -25 -25 -42 -1 -64 25 -23 49 -18 70 14 11 17 12 22
2 16 -10 -7 -12 -4 -7 12 5 15 1 24 -13 31 -26 14 -28 14 -51 -9z"/>
<path d="M4445 5458 c-8 -27 -16 -34 -41 -36 -17 -2 -44 -16 -61 -31 -38 -34
-86 -132 -73 -145 6 -6 10 -19 10 -29 0 -54 54 -98 135 -109 12 -2 23 -15 29
-33 5 -17 11 -37 14 -45 2 -8 10 6 17 31 15 56 22 69 39 69 16 0 50 37 67 75
8 17 24 34 37 40 27 12 28 21 4 27 -11 3 -29 26 -41 51 -12 25 -37 56 -57 68
-22 16 -38 37 -46 62 -14 45 -21 47 -33 5z"/>
<path d="M212 5458 c-16 -16 -15 -53 1 -66 29 -25 77 5 69 43 -2 14 -7 25 -11
26 -3 0 -15 2 -27 4 -11 3 -26 -1 -32 -7z"/>
<path d="M2460 5366 c-18 -22 -5 -48 22 -44 17 2 23 10 23 28 0 29 -26 38 -45
16z"/>
<path d="M8110 5361 c0 -15 6 -21 21 -21 14 0 19 5 17 17 -5 26 -38 29 -38 4z"/>
<path d="M4807 5346 c-8 -19 15 -37 32 -26 17 10 7 40 -13 40 -7 0 -16 -6 -19
-14z"/>
<path d="M2119 5334 c-17 -20 0 -49 29 -50 29 -2 41 35 16 53 -23 17 -29 16
-45 -3z"/>
<path d="M8538 5339 c-9 -5 -13 -18 -10 -37 3 -23 9 -29 28 -29 30 0 48 20 39
45 -7 23 -35 33 -57 21z"/>
<path d="M887 5333 c-4 -3 -7 -12 -7 -20 0 -15 26 -18 34 -4 7 11 -18 33 -27
24z"/>
<path d="M9342 5308 c-31 -31 2 -73 46 -57 37 14 23 69 -18 69 -9 0 -21 -5
-28 -12z"/>
<path d="M11914 5285 c-4 -9 0 -23 8 -31 20 -20 50 -7 46 20 -4 26 -45 35 -54
11z"/>
<path d="M12645 5280 c-11 -17 5 -32 21 -19 7 6 11 15 8 20 -7 12 -21 11 -29
-1z"/>
<path d="M1235 5260 c-8 -13 3 -30 20 -30 14 0 27 24 18 34 -10 9 -31 7 -38
-4z"/>
<path d="M861 5216 c-12 -14 -5 -26 16 -26 15 0 18 26 4 34 -5 3 -14 0 -20 -8z"/>
<path d="M10830 5201 c-7 -15 -6 -24 6 -36 19 -18 33 -16 48 7 7 12 6 21 -3
32 -18 22 -38 20 -51 -3z"/>
<path d="M2108 5179 c-23 -13 -23 -42 0 -62 21 -20 37 -22 26 -5 -5 7 -2 9 8
5 23 -8 30 38 8 58 -19 18 -20 18 -42 4z"/>
<path d="M3424 5166 c-10 -26 4 -48 28 -44 17 2 23 10 23 28 0 18 -6 26 -23
28 -13 2 -25 -3 -28 -12z"/>
<path d="M3074 5149 c-10 -17 13 -36 27 -22 12 12 4 33 -11 33 -5 0 -12 -5
-16 -11z"/>
<path d="M265 5120 c-49 -9 -43 -69 7 -66 28 1 45 29 32 53 -7 15 -16 18 -39
13z"/>
<path d="M1810 5102 c0 -15 -5 -19 -20 -15 -76 20 -143 -113 -90 -180 11 -14
20 -30 20 -35 0 -5 7 -13 15 -16 23 -9 45 -69 45 -124 0 -40 -6 -57 -32 -92
-64 -84 -68 -97 -43 -156 10 -23 25 -40 45 -47 16 -6 30 -15 30 -19 0 -4 9 -8
20 -8 10 0 25 -10 31 -22 14 -26 12 -113 -3 -137 -12 -20 5 -71 24 -72 25 -1
129 -172 143 -236 6 -29 4 -33 -14 -33 -12 0 -21 -4 -21 -10 0 -5 -6 -10 -14
-10 -22 0 -64 -57 -72 -95 -11 -59 11 -100 87 -161 73 -60 71 -56 85 -179 7
-73 33 -126 89 -185 80 -84 95 -116 95 -196 0 -86 3 -91 173 -257 81 -80 115
-121 120 -143 3 -16 15 -41 25 -54 18 -23 27 -25 109 -25 99 0 129 -12 152
-61 7 -16 17 -37 22 -46 5 -10 9 -30 9 -46 0 -32 24 -62 79 -96 21 -13 51 -38
68 -54 28 -29 33 -30 72 -21 42 9 44 8 104 -42 34 -28 71 -55 82 -60 136 -55
175 -77 221 -119 40 -38 66 -53 121 -69 75 -22 123 -53 123 -78 0 -23 58 -91
94 -110 20 -10 61 -17 113 -19 81 -2 123 -18 158 -60 30 -36 81 -54 153 -54
75 0 104 -9 134 -41 10 -9 33 -30 53 -44 46 -36 141 -45 211 -21 58 20 48 20
78 -8 15 -13 26 -33 26 -45 0 -11 3 -21 8 -21 4 0 13 -12 19 -28 33 -72 52
-92 87 -92 24 0 41 8 57 26 156 169 180 184 275 169 62 -9 94 -25 94 -45 0
-22 18 -37 50 -42 19 -2 28 4 38 25 19 38 31 41 88 19 38 -15 76 -20 171 -20
115 -1 126 1 189 29 55 25 73 29 111 23 53 -8 87 7 102 45 12 29 11 71 -1 71
-4 0 -7 3 -6 8 3 16 -18 49 -51 81 -20 18 -35 38 -33 43 4 13 -16 30 -72 63
-52 31 -58 30 -161 -8 -49 -19 -71 -11 -104 38 -19 28 -38 42 -71 51 -77 23
-101 19 -217 -39 -38 -19 -46 -20 -75 -8 -18 7 -47 16 -64 20 -35 7 -72 34
-152 110 -49 48 -62 55 -105 59 -47 5 -51 3 -84 -33 -28 -31 -35 -47 -35 -77
1 -21 -4 -38 -9 -38 -5 0 -2 -16 6 -36 21 -51 19 -90 -6 -107 -28 -20 -49 -12
-95 35 -51 53 -111 79 -205 89 -91 9 -136 30 -229 107 -44 37 -94 67 -142 86
-122 48 -133 57 -148 123 -7 32 -12 85 -12 117 1 63 -16 109 -44 120 -9 4 -50
9 -90 13 -66 5 -78 3 -128 -21 -31 -15 -56 -32 -56 -37 0 -5 -9 -18 -19 -28
-17 -17 -22 -18 -48 -4 -47 24 -61 42 -68 90 -7 47 -9 52 -41 114 -28 52 -99
112 -132 111 -57 -3 -72 -7 -72 -20 0 -7 -5 -10 -11 -7 -5 4 -18 0 -28 -9 -16
-15 -19 -15 -36 4 -12 14 -15 23 -8 32 16 20 6 129 -16 180 -27 64 -57 82
-126 75 -30 -3 -69 -12 -86 -21 -16 -8 -36 -13 -44 -10 -19 8 -45 49 -45 72 0
26 -48 94 -93 133 -21 18 -45 45 -53 61 -22 43 -4 145 35 194 12 15 21 32 21
38 0 14 -92 96 -130 116 -13 7 -59 13 -102 14 -44 1 -78 5 -78 11 -1 6 -7 -1
-14 -14 -13 -24 -14 -24 -25 -3 -15 28 -14 32 9 32 13 0 18 5 14 15 -4 8 -2
15 3 15 10 0 33 78 33 110 0 33 -20 64 -60 94 -53 39 -69 77 -63 146 5 50 2
59 -25 93 -17 21 -45 72 -62 115 -18 42 -40 88 -48 102 -23 36 -111 118 -136
126 -12 4 -27 15 -34 25 -7 11 -22 19 -32 19 -11 0 -31 5 -45 12 -33 15 -30
48 5 65 25 12 43 25 91 66 29 25 59 93 59 135 0 31 -24 85 -55 123 -17 22 -52
44 -103 68 -8 3 -27 37 -43 75 -33 78 -40 89 -81 117 -28 20 -28 20 -28 1z
m380 -1257 c33 -17 46 -51 35 -92 l-6 -26 -30 29 c-17 18 -32 45 -36 67 -6 42
-4 43 37 22z"/>
<path d="M4963 5109 c-47 -14 -83 -62 -83 -110 0 -77 47 -131 138 -159 100
-31 165 -24 203 23 10 12 24 28 31 36 9 11 3 29 -28 88 -44 85 -43 84 -104
108 -55 21 -114 27 -157 14z"/>
<path d="M3187 5104 c-14 -14 -7 -35 11 -32 9 2 17 10 17 17 0 16 -18 25 -28
15z"/>
<path d="M3287 5043 c-9 -88 -38 -120 -116 -130 -59 -7 -51 -23 11 -23 27 0
47 -8 69 -28 27 -24 32 -36 36 -95 3 -37 9 -70 13 -72 4 -2 10 28 13 67 8 89
31 117 101 125 63 8 66 20 7 28 -72 10 -100 43 -108 128 -3 37 -9 67 -13 67
-4 0 -10 -30 -13 -67z"/>
<path d="M8217 5080 c-3 -14 -8 -44 -11 -67 -9 -62 -58 -109 -125 -118 -55 -7
-60 -25 -8 -26 40 -1 56 -7 96 -41 28 -24 33 -36 38 -85 9 -88 20 -98 29 -24
6 56 11 67 47 103 25 25 53 42 74 45 49 8 49 19 -1 32 -27 7 -50 20 -60 36 -9
14 -23 25 -31 25 -8 0 -17 15 -21 38 -3 20 -10 53 -14 72 -7 33 -7 33 -13 10z"/>
<path d="M4723 5074 c-8 -21 13 -42 28 -27 13 13 5 43 -11 43 -6 0 -13 -7 -17
-16z"/>
<path d="M11313 5061 c-22 -11 -55 -34 -72 -53 -17 -18 -37 -40 -45 -48 -20
-21 -30 -82 -22 -134 9 -57 68 -122 120 -132 25 -4 36 -12 36 -24 0 -19 52
-39 57 -23 2 5 18 7 36 5 52 -6 75 27 81 117 3 41 9 95 12 120 14 106 -40 191
-120 191 -22 0 -60 -9 -83 -19z"/>
<path d="M11864 5005 c-9 -23 3 -45 25 -45 21 0 33 22 25 45 -4 8 -15 15 -25
15 -11 0 -22 -7 -25 -15z"/>
<path d="M11063 5003 c-23 -4 -34 -42 -13 -44 36 -5 45 -2 48 14 2 9 -2 17 -8
17 -6 0 -8 5 -5 10 3 6 5 9 3 9 -2 -1 -13 -4 -25 -6z"/>
<path d="M7620 4980 c-11 -11 -20 -17 -20 -12 0 4 -5 -1 -11 -10 -7 -13 -5
-24 8 -43 39 -53 107 -49 128 9 8 25 6 31 -18 52 -34 29 -61 30 -87 4z"/>
<path d="M9937 4924 c-9 -10 2 -24 19 -24 8 0 14 7 14 15 0 15 -21 21 -33 9z"/>
<path d="M12492 4884 c4 -21 22 -23 26 -1 2 10 -3 17 -13 17 -10 0 -15 -6 -13
-16z"/>
<path d="M2286 4794 c-20 -20 -20 -48 0 -68 30 -30 71 -8 70 37 -1 43 -41 61
-70 31z"/>
<path d="M6636 4728 c-21 -29 -20 -41 4 -63 23 -21 69 -13 71 13 3 44 -4 56
-38 66 -15 5 -26 1 -37 -16z"/>
<path d="M10913 4683 c-7 -2 -13 -16 -13 -29 0 -34 48 -54 67 -28 30 41 -5 77
-54 57z"/>
<path d="M1020 4666 c0 -8 4 -17 9 -20 11 -7 33 18 24 27 -12 12 -33 7 -33 -7z"/>
<path d="M2433 4664 c-7 -19 11 -39 26 -30 16 10 13 33 -4 40 -9 3 -18 -1 -22
-10z"/>
<path d="M4995 4650 c-43 -48 28 -108 76 -64 24 22 24 39 -1 64 -26 26 -52 25
-75 0z"/>
<path d="M12070 4635 c-11 -13 -11 -19 3 -32 21 -21 49 -9 45 19 -4 28 -30 35
-48 13z"/>
<path d="M1442 4623 c5 -26 38 -29 38 -4 0 15 -6 21 -21 21 -14 0 -19 -5 -17
-17z"/>
<path d="M2770 4610 c0 -11 7 -20 15 -20 8 0 15 9 15 20 0 11 -7 20 -15 20 -8
0 -15 -9 -15 -20z"/>
<path d="M8035 4620 c-8 -14 3 -30 21 -30 8 0 14 9 14 20 0 21 -24 28 -35 10z"/>
<path d="M3526 4605 c-3 -9 1 -18 10 -22 19 -7 39 11 30 26 -10 16 -33 13 -40
-4z"/>
<path d="M4800 4600 c-27 -27 -25 -56 6 -85 45 -42 75 -31 88 32 13 59 -52 95
-94 53z"/>
<path d="M7607 4603 c-4 -3 -7 -11 -7 -17 0 -6 5 -4 11 4 9 12 10 11 6 -6 -3
-17 0 -21 17 -20 14 1 22 9 24 24 3 17 -1 22 -21 22 -13 0 -27 -3 -30 -7z"/>
<path d="M5158 4549 c-22 -12 -23 -38 -2 -67 18 -27 55 -29 77 -4 44 49 -16
106 -75 71z"/>
<path d="M6217 4519 c-9 -5 -24 -24 -33 -42 -10 -17 -31 -45 -47 -60 -29 -27
-35 -28 -87 -22 -31 4 -61 10 -67 13 -11 7 -24 62 -14 59 7 -2 11 7 11 29 0
20 -44 15 -47 -6 -8 -63 -15 -90 -25 -90 -21 0 -77 -50 -99 -89 -12 -21 -33
-44 -47 -51 l-26 -11 25 -12 c15 -8 25 -23 27 -39 4 -34 69 -105 103 -113 19
-5 29 -16 35 -37 13 -43 33 -47 40 -9 6 27 11 31 40 31 26 0 39 7 58 33 15 19
26 39 26 46 0 6 11 29 24 50 13 21 26 49 28 62 2 20 10 25 47 30 48 6 101 53
101 89 0 10 5 22 10 25 6 3 10 24 10 46 0 62 -46 96 -93 68z"/>
<path d="M7783 4497 c-19 -31 -4 -57 33 -57 25 0 39 27 24 45 -15 18 -49 25
-57 12z"/>
<path d="M11779 4455 c-1 -3 -1 -17 -2 -32 -1 -27 19 -38 49 -26 19 7 18 49
-2 57 -19 7 -44 8 -45 1z"/>
<path d="M11341 4440 c-25 -4 -47 -12 -49 -19 -2 -6 -19 -18 -38 -26 -19 -8
-34 -19 -34 -24 0 -6 -7 -11 -15 -11 -26 0 -37 -48 -29 -131 6 -73 5 -77 -15
-84 -11 -3 -21 -11 -21 -16 0 -5 -7 -9 -15 -9 -22 0 -77 -29 -93 -49 -19 -25
-9 -103 19 -142 13 -19 23 -40 21 -46 -2 -8 3 -10 13 -7 17 7 19 -17 5 -51 -7
-19 -8 -19 -15 -2 -5 13 -11 15 -20 7 -10 -8 -15 -8 -20 1 -6 8 -10 7 -16 -2
-7 -11 -9 -11 -9 -1 0 9 -5 9 -17 3 -10 -6 -31 -13 -47 -16 -44 -9 -86 -57
-86 -98 0 -26 9 -43 41 -76 24 -24 48 -40 55 -37 8 3 14 0 14 -5 0 -6 9 -9 20
-6 11 3 20 1 20 -4 0 -5 9 -9 20 -9 25 0 25 2 -5 -73 -36 -87 -41 -131 -21
-162 33 -51 117 -84 129 -51 3 7 18 16 34 19 35 7 55 41 88 144 17 52 35 86
53 103 43 38 72 93 73 136 1 53 -10 101 -27 115 -8 6 -14 23 -14 37 0 15 -15
42 -40 68 -31 33 -40 52 -40 78 0 40 28 66 71 66 14 0 38 11 53 25 15 14 34
25 42 25 7 0 14 4 14 9 0 5 9 7 20 4 12 -3 20 0 20 7 0 8 10 11 30 8 19 -3 31
0 35 9 7 19 25 6 25 -17 0 -11 11 -27 24 -35 35 -23 77 -16 95 17 15 25 14 29
-8 52 -17 18 -35 26 -58 26 -22 0 -33 5 -32 13 2 6 -5 29 -14 51 -9 21 -17 48
-17 60 0 42 -100 126 -135 112 -9 -3 -18 0 -21 9 -4 8 -9 14 -13 14 -3 -1 -26
-5 -50 -9z m-211 -632 c0 -19 -2 -20 -10 -8 -13 19 -13 30 0 30 6 0 10 -10 10
-22z"/>
<path d="M5423 4374 c-15 -24 -15 -29 -2 -53 27 -48 109 -38 109 13 0 63 -74
90 -107 40z"/>
<path d="M414 4346 c-10 -26 4 -48 28 -44 17 2 23 10 23 28 0 18 -6 26 -23 28
-13 2 -25 -3 -28 -12z"/>
<path d="M8107 4354 c-16 -16 -6 -35 16 -32 12 2 22 10 22 18 0 16 -26 25 -38
14z"/>
<path d="M5197 4326 c-7 -17 17 -41 31 -32 5 3 12 15 15 26 4 16 0 20 -18 20
-13 0 -25 -6 -28 -14z"/>
<path d="M12482 4248 c2 -13 8 -23 13 -23 6 0 11 10 13 23 2 15 -2 22 -13 22
-11 0 -15 -7 -13 -22z"/>
<path d="M5541 4243 c-5 -11 -8 -37 -7 -59 2 -21 4 -44 5 -51 1 -16 53 -32 85
-26 51 10 68 90 26 128 -10 9 -36 19 -58 22 -33 4 -42 2 -51 -14z"/>
<path d="M147 4212 c-35 -39 -12 -93 40 -94 18 -1 39 5 48 12 18 15 20 71 3
88 -18 18 -73 14 -91 -6z"/>
<path d="M1672 4214 c-26 -18 -30 -65 -6 -89 24 -24 85 -16 100 12 6 13 14 20
17 16 9 -8 9 15 1 45 -4 12 -11 22 -16 22 -5 0 -6 -6 -2 -12 4 -7 -2 -5 -13 5
-24 21 -52 22 -81 1z"/>
<path d="M9493 4203 c-19 -7 -16 -50 4 -57 24 -10 51 20 37 41 -12 19 -23 24
-41 16z"/>
<path d="M12094 4126 c-9 -24 4 -48 23 -44 12 2 18 12 18 28 0 29 -32 41 -41
16z"/>
<path d="M7905 4120 c-8 -14 3 -30 21 -30 8 0 14 9 14 20 0 21 -24 28 -35 10z"/>
<path d="M5346 4078 c-28 -42 -9 -78 39 -78 31 0 35 3 41 35 4 22 2 41 -6 50
-18 22 -57 18 -74 -7z"/>
<path d="M9915 4091 c-8 -15 3 -31 21 -31 9 0 14 7 12 17 -4 20 -24 28 -33 14z"/>
<path d="M704 4019 c-8 -14 11 -33 25 -25 6 4 11 14 11 22 0 16 -26 19 -36 3z"/>
<path d="M2641 3986 c-16 -20 -3 -46 24 -46 13 0 26 7 29 16 7 19 -10 44 -29
44 -7 0 -18 -6 -24 -14z"/>
<path d="M1380 3960 c0 -15 5 -20 18 -18 9 2 17 10 17 18 0 8 -8 16 -17 18
-13 2 -18 -3 -18 -18z"/>
<path d="M7806 3902 c-11 -100 -35 -129 -116 -138 -63 -7 -73 -24 -15 -24 42
0 74 -12 101 -38 17 -16 23 -38 29 -97 4 -42 9 -75 11 -72 3 2 8 38 13 79 11
94 31 119 103 126 62 6 61 18 -1 26 -66 9 -101 47 -102 114 -1 26 -4 58 -8 72
-6 19 -10 7 -15 -48z"/>
<path d="M7464 3846 c-10 -26 4 -48 28 -44 17 2 23 10 23 28 0 18 -6 26 -23
28 -13 2 -25 -3 -28 -12z"/>
<path d="M11822 3818 c-7 -7 -12 -18 -12 -25 0 -15 30 -32 48 -26 17 7 15 50
-4 57 -20 8 -18 8 -32 -6z"/>
<path d="M3670 3786 c0 -8 4 -17 9 -20 11 -7 33 18 24 27 -12 12 -33 7 -33 -7z"/>
<path d="M1052 3768 c2 -13 10 -23 18 -23 8 0 16 10 18 23 3 17 -2 22 -18 22
-16 0 -21 -5 -18 -22z"/>
<path d="M1595 3750 c-8 -14 3 -30 21 -30 8 0 14 9 14 20 0 21 -24 28 -35 10z"/>
<path d="M12160 3734 c-11 -12 -10 -18 3 -32 16 -15 18 -15 34 0 13 14 14 20
3 32 -7 9 -16 16 -20 16 -4 0 -13 -7 -20 -16z"/>
<path d="M3276 3703 c-12 -12 -6 -33 9 -33 8 0 15 6 15 14 0 17 -14 28 -24 19z"/>
<path d="M8041 3677 c-9 -11 -8 -17 4 -27 12 -10 16 -9 21 5 9 23 -10 40 -25
22z"/>
<path d="M460 3650 c-11 -11 -20 -24 -20 -30 0 -13 37 -50 51 -50 5 0 8 4 5 9
-3 5 2 8 12 7 21 -1 29 48 11 70 -16 19 -35 18 -59 -6z"/>
<path d="M11640 3660 c0 -5 -5 -9 -11 -7 -17 3 -37 -34 -21 -40 6 -3 9 -9 6
-15 -4 -6 7 -8 27 -6 41 4 50 31 20 59 -12 11 -21 15 -21 9z"/>
<path d="M0 2908 c0 -650 2 -748 15 -748 8 0 19 -9 25 -19 5 -11 26 -25 45
-31 19 -6 35 -15 35 -19 0 -8 59 -36 100 -46 42 -11 153 -67 184 -92 60 -50
104 -65 190 -65 44 0 90 3 102 6 27 10 65 -21 66 -54 1 -14 12 -39 25 -57 12
-17 24 -40 26 -50 1 -10 6 -24 10 -30 8 -12 8 -26 5 -144 -2 -76 24 -113 89
-127 60 -13 113 -14 113 -1 0 6 5 7 10 4 6 -3 10 1 10 10 0 9 5 13 10 10 6 -3
10 4 10 16 0 22 1 22 33 -7 53 -51 90 -71 137 -78 74 -11 109 -8 143 11 28 17
32 25 35 66 2 38 -2 54 -20 77 -13 16 -30 39 -39 52 -9 13 -42 37 -73 53 l-56
29 -61 -43 c-33 -23 -67 -40 -75 -37 -7 3 -23 20 -34 38 -24 38 -21 86 10 150
13 27 16 46 11 57 -6 10 -5 23 0 33 13 24 20 106 13 156 -10 68 -38 93 -107
96 -31 2 -57 -1 -57 -5 0 -5 -7 -9 -15 -9 -8 0 -15 -5 -15 -11 0 -5 -5 -7 -11
-4 -5 4 -19 -1 -30 -11 -10 -9 -19 -14 -19 -10 0 3 -13 -8 -29 -26 -16 -18
-31 -31 -33 -28 -2 3 -16 45 -32 93 -27 85 -30 90 -69 107 -38 17 -42 24 -59
82 -22 79 -22 78 2 78 17 0 19 5 13 31 -5 25 -3 31 8 27 13 -4 39 14 39 28 0
3 9 15 20 24 59 51 41 135 -48 226 l-63 65 5 51 c4 32 13 56 24 64 9 6 31 24
47 38 17 14 40 26 52 26 31 0 63 33 56 59 -9 33 -30 44 -75 38 -27 -4 -52 0
-70 9 -24 12 -28 21 -28 54 0 30 -5 43 -23 54 -22 15 -67 12 -67 -5 0 -16 -53
-60 -66 -55 -8 3 -14 1 -14 -5 0 -6 -4 -7 -10 -4 -5 3 -10 1 -10 -6 0 -8 -4
-9 -13 -1 -10 9 -19 7 -35 -4 -21 -14 -23 -13 -34 11 -10 23 -14 25 -23 11 -9
-12 -16 -6 -38 40 -22 45 -24 56 -13 60 12 4 13 11 4 29 -6 13 -7 32 -3 42 14
33 16 85 4 122 -18 58 -71 141 -91 141 -9 0 -20 5 -23 10 -3 6 -14 10 -24 10
-10 0 -26 11 -35 25 -10 15 -26 25 -41 25 -13 0 -29 8 -34 18 -7 12 -10 -218
-11 -730z m1110 -1406 c-7 -3 -16 2 -21 9 -16 25 -9 32 12 13 13 -12 16 -20 9
-22z"/>
<path d="M7260 3466 c-18 -22 -5 -48 22 -44 17 2 23 10 23 28 0 29 -26 38 -45
16z"/>
<path d="M10623 3447 c-9 -15 -9 -49 1 -65 4 -6 17 -12 30 -12 60 0 62 79 2
85 -14 2 -29 -2 -33 -8z"/>
<path d="M9806 3411 c-7 -11 18 -33 27 -24 4 3 7 12 7 20 0 15 -26 18 -34 4z"/>
<path d="M12654 3369 c-10 -17 13 -36 27 -22 12 12 4 33 -11 33 -5 0 -12 -5
-16 -11z"/>
<path d="M11847 3284 c-12 -12 -8 -42 6 -47 21 -8 39 8 35 29 -3 19 -29 30
-41 18z"/>
<path d="M3146 3174 c-32 -32 -10 -66 37 -57 19 4 27 11 27 27 0 42 -36 59
-64 30z"/>
<path d="M3871 3176 c-12 -14 -5 -26 16 -26 15 0 18 26 4 34 -5 3 -14 0 -20
-8z"/>
<path d="M12545 3171 c-7 -12 12 -24 25 -16 11 7 4 25 -10 25 -5 0 -11 -4 -15
-9z"/>
<path d="M11238 3113 c-21 -26 -44 -103 -32 -111 5 -4 14 -16 20 -27 18 -32
58 -41 89 -21 26 17 26 20 20 84 -4 37 -12 73 -17 80 -15 18 -63 15 -80 -5z"/>
<path d="M6970 3100 c0 -15 5 -20 18 -18 9 2 17 10 17 18 0 8 -8 16 -17 18
-13 2 -18 -3 -18 -18z"/>
<path d="M6484 3086 c-10 -26 4 -48 28 -44 17 2 23 10 23 28 0 18 -6 26 -23
28 -13 2 -25 -3 -28 -12z"/>
<path d="M10883 3050 c-64 -32 -96 -69 -133 -153 -20 -44 -21 -55 -11 -111 14
-78 14 -136 1 -136 -5 0 -23 23 -39 51 -16 29 -32 46 -35 40 -11 -17 -24 -13
-31 9 -4 11 -10 18 -15 15 -5 -3 -11 -1 -14 3 -7 12 -80 14 -110 2 -27 -10
-56 -57 -56 -90 0 -30 28 -86 56 -113 13 -12 24 -29 24 -37 0 -25 79 -70 121
-70 57 0 66 7 111 84 54 93 61 99 77 74 7 -11 15 -17 18 -14 4 3 21 -5 39 -19
18 -14 42 -25 53 -25 24 0 54 41 49 67 -3 10 3 39 13 64 11 29 19 82 21 143 2
62 7 96 14 96 10 0 24 51 24 92 0 9 -9 19 -19 23 -12 4 -18 12 -14 21 10 27
-77 17 -144 -16z"/>
<path d="M5240 3055 c-16 -20 -9 -49 14 -53 27 -6 48 25 35 49 -12 23 -32 24
-49 4z"/>
<path d="M5992 3058 c-25 -25 0 -64 32 -52 21 8 21 50 0 58 -20 8 -18 8 -32
-6z"/>
<path d="M12180 2950 c-12 -7 -12 -12 -2 -22 9 -9 15 -9 24 0 16 16 -2 34 -22
22z"/>
<path d="M1491 2936 c-12 -14 -5 -26 16 -26 15 0 18 26 4 34 -5 3 -14 0 -20
-8z"/>
<path d="M9472 2863 c2 -10 10 -18 18 -18 22 0 18 29 -3 33 -14 3 -18 -1 -15
-15z"/>
<path d="M11550 2815 c-17 -20 -5 -45 20 -45 11 0 23 7 26 15 6 15 -11 45 -26
45 -4 0 -13 -7 -20 -15z"/>
<path d="M2153 2804 c-8 -20 8 -36 26 -25 15 10 8 41 -9 41 -6 0 -13 -7 -17
-16z"/>
<path d="M3578 2814 c-4 -3 -4 -13 -1 -22 5 -11 3 -13 -8 -7 -11 7 -10 3 2
-15 31 -47 83 -33 70 18 -5 19 -15 28 -32 30 -14 2 -28 0 -31 -4z"/>
<path d="M5660 2786 c-10 -13 -10 -19 0 -32 12 -14 15 -14 29 0 14 15 14 17 0
32 -14 14 -17 14 -29 0z"/>
<path d="M10223 2752 c-14 -2 -25 -13 -29 -27 -7 -29 3 -48 23 -41 8 3 11 1 8
-4 -8 -13 1 -13 26 0 21 12 26 53 7 67 -7 5 -23 7 -35 5z"/>
<path d="M6925 2740 c-4 -7 -3 -16 3 -22 14 -14 45 -2 40 15 -6 16 -34 21 -43
7z"/>
<path d="M4790 2700 c0 -15 5 -20 18 -18 9 2 17 10 17 18 0 8 -8 16 -17 18
-13 2 -18 -3 -18 -18z"/>
<path d="M1942 2633 c2 -10 10 -18 18 -18 8 0 16 8 18 18 2 12 -3 17 -18 17
-15 0 -20 -5 -18 -17z"/>
<path d="M817 2503 c-18 -17 9 -63 36 -63 7 0 6 4 -3 10 -13 8 -13 10 2 10 23
0 32 18 18 35 -13 16 -42 20 -53 8z"/>
<path d="M9340 2350 c0 -15 5 -20 18 -18 9 2 17 10 17 18 0 8 -8 16 -17 18
-13 2 -18 -3 -18 -18z"/>
<path d="M10278 2302 c-13 -10 -31 -23 -39 -30 -48 -43 -74 -60 -82 -55 -9 6
-67 -45 -67 -59 0 -5 4 -7 9 -3 17 10 22 -13 6 -28 -8 -9 -15 -23 -15 -32 0
-8 -10 -20 -22 -25 -13 -6 -30 -14 -38 -20 -8 -5 -41 -14 -72 -20 -65 -13 -83
-29 -80 -73 11 -187 11 -183 -67 -268 -56 -60 -72 -72 -82 -61 -7 6 -21 12
-31 12 -10 0 -18 5 -18 11 0 6 -7 9 -15 6 -8 -4 -17 -2 -20 4 -4 5 -10 7 -15
4 -5 -3 -11 -1 -14 4 -4 5 -51 8 -109 6 -56 -2 -115 -4 -131 -4 -27 -1 -56
-26 -120 -102 -15 -18 -18 -18 -41 -3 -28 18 -55 13 -55 -11 0 -14 12 -20 33
-16 5 1 6 -3 2 -9 -3 -5 -2 -10 4 -10 6 0 13 -11 17 -24 12 -47 52 -64 104
-44 30 12 60 16 60 8 0 -4 17 -4 37 0 40 9 93 3 93 -11 0 -5 7 -9 15 -9 9 0
15 -9 15 -22 -1 -13 2 -38 6 -55 5 -29 3 -34 -21 -43 -14 -5 -43 -10 -63 -10
-20 0 -46 -7 -56 -15 -10 -8 -23 -12 -27 -9 -8 5 -93 13 -184 17 -81 4 -158
-38 -170 -94 -6 -28 22 -139 35 -139 4 0 6 -14 5 -32 -4 -64 -158 -169 -267
-182 -55 -6 -57 -5 -78 24 -36 50 -92 34 -92 -27 0 -15 4 -29 10 -31 6 -2 8
-10 5 -19 -4 -10 -2 -14 4 -10 6 4 11 -3 11 -18 0 -21 -16 -32 -110 -80 -60
-30 -102 -55 -93 -55 18 0 20 -16 3 -23 -10 -4 -10 -7 -1 -14 9 -6 -1 -16 -32
-33 -36 -20 -41 -26 -28 -35 12 -9 -5 -19 -89 -52 -79 -31 -104 -38 -106 -27
-2 10 -11 12 -28 8 -17 -4 -30 -1 -42 13 -9 10 -38 24 -64 31 -42 10 -54 10
-96 -6 -26 -10 -68 -38 -93 -63 -51 -49 -113 -72 -171 -63 -30 5 -40 1 -67
-25 -17 -16 -31 -34 -31 -40 0 -5 -7 -12 -16 -15 -9 -3 -14 -12 -11 -20 4 -10
-14 -20 -59 -35 -76 -25 -94 -26 -94 -6 0 8 -7 15 -15 15 -8 0 -15 5 -15 10 0
6 -6 10 -14 10 -7 0 -19 7 -26 15 -20 24 -74 19 -102 -10 -29 -29 -68 -45
-109 -45 -16 0 -48 -5 -73 -12 -38 -10 -50 -9 -102 11 -82 32 -168 74 -173 85
-10 25 -57 56 -82 56 -29 0 -68 -30 -70 -52 0 -7 -2 -21 -4 -31 -4 -22 24
-109 39 -119 8 -6 7 -11 -3 -17 -9 -6 -10 -11 -2 -15 6 -4 9 -12 5 -17 -3 -5
-1 -16 5 -23 8 -10 5 -16 -15 -25 -19 -8 -24 -16 -19 -31 5 -16 0 -20 -32 -25
-21 -4 -45 -8 -53 -10 -8 -1 472 -3 1067 -4 l1081 -1 7 41 c5 29 11 39 21 35
9 -4 18 4 24 19 7 17 17 25 34 25 33 0 106 39 136 74 51 58 60 111 39 218 -10
49 -9 59 10 96 12 23 31 47 44 53 12 6 32 20 44 31 12 11 26 17 32 14 5 -4 12
-2 16 4 3 5 17 10 30 10 13 0 31 10 39 22 11 15 28 23 52 25 42 2 74 27 74 56
0 11 -8 34 -19 51 -22 37 -35 112 -21 121 6 4 0 26 -15 55 -29 57 -31 82 -9
104 23 24 56 19 103 -15 24 -17 45 -28 49 -25 3 3 12 0 21 -8 16 -14 81 -35
131 -43 115 -16 103 -19 166 37 106 94 110 104 74 198 -18 48 -19 56 -5 87 8
20 21 38 30 41 21 9 45 57 45 92 0 18 13 43 36 70 44 52 70 68 89 52 7 -6 17
-10 21 -9 20 3 26 -2 17 -13 -6 -7 -8 -30 -5 -51 5 -45 40 -69 67 -47 21 17
19 42 -5 70 -16 18 -23 21 -32 12 -21 -21 -29 -13 -13 11 8 13 27 30 43 37 82
42 131 118 126 195 -3 54 17 125 35 125 8 0 23 7 33 17 10 9 18 11 18 6 0 -18
82 -55 132 -60 131 -13 183 73 99 165 -21 23 -42 42 -46 42 -10 0 -40 32 -41
44 0 6 -6 29 -12 51 -7 22 -12 56 -12 75 0 19 -8 50 -18 69 -15 29 -23 34 -58
36 -26 2 -51 -3 -66 -13z"/>
<path d="M9992 2294 c-14 -10 -22 -26 -22 -44 0 -52 66 -90 99 -57 10 10 11 8
5 -8 -8 -19 -7 -19 16 -4 14 9 27 25 29 35 3 17 2 17 -15 4 -16 -14 -17 -13
-11 3 9 24 -11 63 -40 76 -31 14 -34 14 -61 -5z"/>
<path d="M1183 2284 c-8 -21 13 -42 28 -27 13 13 5 43 -11 43 -6 0 -13 -7 -17
-16z"/>
<path d="M10758 2249 c-15 -4 -29 -5 -31 -2 -3 2 -4 -15 -3 -38 1 -32 7 -46
27 -61 46 -35 100 7 85 66 -7 29 -43 45 -78 35z"/>
<path d="M11104 2235 c-8 -21 2 -45 19 -45 21 0 38 25 31 44 -8 20 -43 21 -50
1z"/>
<path d="M5662 2213 c-7 -3 -17 -14 -23 -25 -9 -16 -8 -19 3 -13 10 6 11 5 1
-5 -10 -11 -10 -17 1 -29 8 -9 16 -36 19 -61 5 -57 21 -95 44 -109 14 -8 15
-12 5 -19 -9 -6 2 -15 38 -31 l51 -22 43 21 c24 11 51 29 61 40 17 19 17 20 0
20 -16 0 -17 2 -3 18 13 15 16 41 10 88 -6 36 -104 98 -148 92 -12 -2 -30 4
-41 13 -22 20 -44 27 -61 22z"/>
<path d="M2254 2185 c-8 -31 7 -50 31 -41 22 8 16 60 -7 64 -12 2 -19 -5 -24
-23z"/>
<path d="M4517 2192 c-27 -29 -30 -79 -7 -102 23 -23 88 -28 108 -8 19 19 15
92 -6 111 -24 22 -75 22 -95 -1z"/>
<path d="M1437 2194 c-14 -15 -6 -34 14 -34 14 0 19 5 17 17 -3 18 -20 27 -31
17z"/>
<path d="M12167 2144 c-13 -13 -7 -24 14 -24 11 0 19 5 17 12 -5 14 -22 21
-31 12z"/>
<path d="M12465 2063 c-15 -14 -15 -18 -1 -31 18 -19 46 -9 46 17 0 26 -26 34
-45 14z"/>
<path d="M11889 2001 c-32 -26 -14 -46 31 -36 35 8 51 32 29 46 -21 13 -34 11
-60 -10z"/>
<path d="M12044 1999 c-8 -14 11 -33 25 -25 16 10 13 36 -3 36 -8 0 -18 -5
-22 -11z"/>
<path d="M8614 1969 c-10 -17 13 -36 27 -22 12 12 4 33 -11 33 -5 0 -12 -5
-16 -11z"/>
<path d="M1273 1905 c-12 -9 -25 -32 -29 -52 -6 -32 -3 -40 19 -59 23 -20 30
-21 58 -11 19 7 38 25 47 45 15 30 15 34 -5 60 -24 32 -59 39 -90 17z"/>
<path d="M12523 1784 c-8 -21 13 -42 28 -27 13 13 5 43 -11 43 -6 0 -13 -7
-17 -16z"/>
<path d="M7860 1767 c0 -19 10 -27 26 -20 21 8 17 33 -6 33 -11 0 -20 -6 -20
-13z"/>
<path d="M1686 1711 c-9 -10 -16 -22 -16 -28 0 -21 37 -41 87 -48 67 -9 94 5
90 45 -2 17 -7 33 -11 37 -3 4 -35 8 -71 9 -50 2 -67 -2 -79 -15z"/>
<path d="M10664 1706 c-10 -26 4 -48 28 -44 17 2 23 10 23 28 0 18 -6 26 -23
28 -13 2 -25 -3 -28 -12z"/>
<path d="M11514 1709 c-10 -17 13 -36 27 -22 12 12 4 33 -11 33 -5 0 -12 -5
-16 -11z"/>
<path d="M463 1664 c-3 -8 -1 -20 5 -26 15 -15 43 8 35 28 -7 19 -32 18 -40
-2z"/>
<path d="M8421 1666 c-12 -14 -5 -26 16 -26 15 0 18 26 4 34 -5 3 -14 0 -20
-8z"/>
<path d="M3214 1599 c-8 -14 11 -33 25 -25 6 4 11 14 11 22 0 16 -26 19 -36 3z"/>
<path d="M2625 1590 c-9 -15 4 -30 26 -30 12 0 19 7 19 20 0 21 -33 29 -45 10z"/>
<path d="M1935 1560 c-22 -24 -11 -58 21 -66 32 -8 50 8 49 42 -2 37 -45 51
-70 24z"/>
<path d="M12563 1543 c-14 -5 -59 -70 -83 -118 -8 -16 -26 -39 -39 -50 -34
-28 -46 -41 -99 -112 -26 -34 -74 -82 -107 -107 -33 -25 -82 -62 -110 -83 -53
-41 -87 -96 -90 -148 -1 -18 -5 -36 -7 -41 -7 -11 -1 -121 7 -133 6 -11 -49
-85 -126 -170 -40 -44 -61 -60 -73 -55 -9 3 -23 1 -30 -5 -11 -9 -15 -9 -19 1
-3 10 -9 10 -24 1 -14 -8 -24 -8 -30 -2 -14 14 -78 1 -107 -22 -13 -10 -47
-71 -76 -135 -46 -103 -52 -122 -47 -163 5 -44 41 -122 59 -129 4 -2 8 -10 8
-18 0 -8 7 -14 15 -14 8 0 15 -9 15 -20 0 -19 7 -20 204 -20 l204 0 7 60 c4
32 12 80 19 106 11 43 14 47 46 49 19 2 38 -1 41 -7 4 -5 9 2 13 16 4 16 13
26 24 26 10 0 25 8 34 18 9 9 23 22 31 29 15 12 32 126 22 144 -11 16 24 61
43 55 22 -7 78 -8 120 -3 44 6 69 31 103 103 33 69 69 94 135 94 21 0 64 5 96
12 l58 12 0 383 c0 334 -2 383 -15 383 -8 0 -15 5 -15 12 0 6 -2 9 -5 6 -3 -3
-31 7 -62 23 -52 27 -108 36 -140 22z"/>
<path d="M3950 1450 c0 -13 7 -20 20 -20 13 0 20 7 20 20 0 13 -7 20 -20 20
-13 0 -20 -7 -20 -20z"/>
<path d="M12364 1450 c-28 -11 -37 -36 -18 -55 26 -26 64 -14 64 20 0 30 -20
45 -46 35z"/>
<path d="M157 1434 c-14 -14 -7 -35 11 -32 9 2 17 10 17 17 0 16 -18 25 -28
15z"/>
<path d="M1476 1425 c-21 -8 -42 -17 -46 -22 -14 -14 -17 -133 -4 -144 7 -5
10 -19 7 -29 -3 -11 0 -27 7 -35 7 -8 10 -15 7 -15 -9 0 42 -143 54 -151 6 -3
-1 -9 -15 -13 -15 -4 -24 -10 -22 -15 3 -5 -8 -19 -24 -31 -69 -53 -7 -155 75
-124 35 14 58 110 33 143 -10 13 -10 14 2 4 19 -18 33 -16 26 3 -3 8 -2 12 4
9 6 -3 10 -1 10 6 0 6 8 9 20 6 11 -3 22 -1 25 3 7 11 81 1 124 -16 45 -19 64
-18 93 6 17 13 28 16 35 9 14 -14 22 0 28 43 2 18 7 47 11 64 3 19 1 34 -5 38
-6 4 -11 19 -11 34 0 30 -51 72 -87 72 -36 0 -66 16 -124 67 -31 27 -71 55
-90 62 -19 7 -48 19 -65 26 -25 10 -37 10 -68 0z"/>
<path d="M8655 1431 c-8 -15 3 -31 21 -31 9 0 14 7 12 17 -4 20 -24 28 -33 14z"/>
<path d="M4667 1397 c-3 -8 -2 -20 3 -27 11 -18 42 -4 38 17 -4 22 -34 29 -41
10z"/>
<path d="M8556 1381 c-3 -5 0 -14 8 -20 10 -8 16 -8 25 2 6 8 8 17 4 20 -9 10
-31 9 -37 -2z"/>
<path d="M7982 1363 c2 -10 10 -18 18 -18 22 0 18 29 -3 33 -14 3 -18 -1 -15
-15z"/>
<path d="M1026 1354 c-21 -20 -20 -40 2 -50 28 -12 44 -10 55 8 9 13 7 22 -7
37 -23 25 -30 26 -50 5z"/>
<path d="M10582 1358 c-16 -16 -15 -23 3 -42 28 -27 69 10 44 40 -14 17 -31
18 -47 2z"/>
<path d="M11744 1335 c-9 -23 3 -45 25 -45 23 0 35 28 20 46 -15 18 -38 18
-45 -1z"/>
<path d="M12073 1304 c-8 -22 18 -37 36 -20 7 8 10 19 7 25 -10 16 -36 13 -43
-5z"/>
<path d="M5167 1296 c-9 -22 18 -40 33 -22 6 9 9 20 5 26 -9 15 -32 12 -38 -4z"/>
<path d="M7633 1293 c-21 -7 -15 -33 7 -33 11 0 20 6 20 14 0 18 -11 25 -27
19z"/>
<path d="M6181 1266 c-9 -10 -8 -16 3 -25 10 -9 16 -8 25 3 9 10 8 16 -3 25
-10 9 -16 8 -25 -3z"/>
<path d="M4135 1210 c-4 -7 -3 -16 3 -22 14 -14 45 -2 40 15 -6 16 -34 21 -43
7z"/>
<path d="M7275 1201 c-8 -15 3 -31 21 -31 9 0 14 7 12 17 -4 20 -24 28 -33 14z"/>
<path d="M11181 1180 c-16 -9 -6 -30 15 -30 15 0 20 25 6 34 -4 2 -14 1 -21
-4z"/>
<path d="M11570 1135 c-10 -11 -10 -19 -2 -27 15 -15 44 -2 40 19 -4 23 -22
27 -38 8z"/>
<path d="M510 1126 c0 -8 4 -17 9 -20 11 -7 33 18 24 27 -12 12 -33 7 -33 -7z"/>
<path d="M7774 1099 c-8 -14 11 -33 25 -25 16 10 13 36 -3 36 -8 0 -18 -5 -22
-11z"/>
<path d="M4881 1076 c-15 -18 -4 -46 18 -46 27 0 42 20 30 42 -12 21 -32 23
-48 4z"/>
<path d="M2150 1050 c-8 -5 -22 -7 -32 -4 -10 3 -22 -4 -32 -17 -15 -23 -99
-69 -125 -69 -11 0 -11 -3 -1 -15 10 -12 10 -15 -2 -15 -8 0 -23 -6 -33 -14
-15 -11 -17 -17 -8 -28 7 -8 10 -24 7 -35 -4 -15 2 -30 19 -47 24 -24 31 -26
103 -22 70 4 79 2 100 -19 20 -20 31 -63 22 -79 -2 -3 7 -15 18 -28 12 -13 29
-40 39 -61 10 -21 30 -44 45 -52 14 -7 32 -20 38 -28 7 -8 22 -12 35 -10 31 5
73 -56 58 -85 -12 -22 -1 -115 23 -188 9 -27 29 -89 44 -139 l29 -90 1421 -3
c832 -1 1422 2 1422 7 0 5 -11 12 -25 15 -16 4 -25 13 -25 26 0 11 -4 20 -10
20 -5 0 -10 9 -10 21 0 12 -8 23 -20 26 -11 3 -20 10 -20 17 0 6 -16 24 -36
40 -26 21 -50 29 -92 33 -51 5 -60 2 -84 -20 -16 -15 -28 -31 -28 -37 0 -5 -6
-10 -13 -10 -8 0 -22 -18 -33 -40 -11 -24 -28 -43 -41 -46 -14 -4 -23 -14 -23
-25 0 -14 -7 -19 -29 -19 -44 0 -61 10 -61 35 0 16 -7 25 -24 29 -14 3 -26 16
-30 31 -4 14 -11 25 -16 25 -6 0 -10 7 -10 15 0 8 -10 20 -22 26 -12 7 -30 21
-39 33 -16 19 -27 21 -109 19 -67 -1 -97 -6 -109 -17 -10 -9 -21 -13 -25 -9
-4 4 -9 -2 -12 -13 -4 -16 -12 -19 -35 -16 -22 3 -29 0 -29 -12 0 -9 -7 -16
-15 -16 -34 0 -132 44 -155 70 -14 15 -46 37 -71 48 l-47 20 3 63 c2 77 -9
116 -42 147 -29 26 -103 31 -127 7 -8 -8 -19 -15 -24 -15 -5 0 -13 -11 -16
-25 -4 -14 -13 -25 -21 -25 -8 0 -15 -4 -15 -10 0 -5 -6 -10 -14 -10 -8 0 -16
-6 -19 -12 -3 -10 -16 -9 -53 5 -154 57 -353 123 -449 149 -116 32 -139 43
-131 65 3 7 1 13 -5 13 -6 0 -8 4 -5 8 10 17 -18 83 -51 122 -27 31 -49 44
-101 60 -36 11 -78 18 -92 15 -36 -7 -70 -7 -209 -1 -78 3 -131 1 -143 -5 -33
-18 -135 26 -153 65 -8 17 -19 38 -23 46 -5 8 -16 29 -24 45 -32 61 -129 97
-178 65z"/>
<path d="M5750 1045 c-18 -21 -5 -47 22 -43 26 3 37 36 16 49 -18 12 -24 11
-38 -6z"/>
<path d="M1211 1037 c-16 -20 1 -63 29 -70 14 -4 29 2 41 14 18 18 19 23 6 42
-17 26 -59 34 -76 14z"/>
<path d="M8577 1027 c-3 -8 -2 -20 3 -27 11 -18 42 -4 38 17 -4 22 -34 29 -41
10z"/>
<path d="M902 993 c2 -10 10 -18 18 -18 22 0 18 29 -3 33 -14 3 -18 -1 -15
-15z"/>
<path d="M3128 983 c-15 -18 -1 -61 22 -68 30 -10 61 12 57 40 -1 13 -6 27
-10 31 -12 13 -58 10 -69 -3z"/>
<path d="M9957 988 c-6 -18 11 -48 27 -48 20 0 37 25 30 44 -7 19 -50 22 -57
4z"/>
<path d="M7664 979 c-8 -14 11 -33 25 -25 16 10 13 36 -3 36 -8 0 -18 -5 -22
-11z"/>
<path d="M11284 969 c-10 -17 13 -36 27 -22 12 12 4 33 -11 33 -5 0 -12 -5
-16 -11z"/>
<path d="M7450 950 c0 -16 5 -21 23 -18 12 2 22 10 22 18 0 8 -10 16 -22 18
-18 3 -23 -2 -23 -18z"/>
<path d="M6584 905 c-4 -9 -2 -21 4 -27 15 -15 54 1 50 20 -4 23 -46 28 -54 7z"/>
<path d="M150 875 c0 -10 7 -15 18 -13 21 4 19 22 -2 26 -10 2 -16 -3 -16 -13z"/>
<path d="M4042 877 c-10 -11 -9 -17 3 -27 24 -20 45 4 24 26 -14 13 -17 13
-27 1z"/>
<path d="M3570 839 c0 -14 5 -19 17 -17 26 5 29 38 4 38 -15 0 -21 -6 -21 -21z"/>
<path d="M860 830 c0 -11 7 -20 15 -20 8 0 15 9 15 20 0 11 -7 20 -15 20 -8 0
-15 -9 -15 -20z"/>
<path d="M11770 833 c-47 -17 -55 -90 -14 -122 15 -12 23 -21 18 -21 -5 -1 6
-7 24 -15 18 -8 40 -11 48 -8 14 5 15 3 5 -15 -11 -21 -10 -21 14 -10 26 12
49 41 66 85 l10 28 -27 -25 c-25 -24 -26 -24 -15 -3 11 22 6 73 -9 73 -4 0
-17 9 -30 20 -22 19 -58 24 -90 13z"/>
<path d="M4650 765 c-15 -17 -5 -35 20 -35 22 0 33 23 17 39 -15 15 -22 14
-37 -4z"/>
<path d="M8401 761 c-8 -5 -10 -14 -6 -21 5 -9 4 -11 -3 -6 -17 10 -15 -16 4
-42 16 -24 62 -30 81 -11 20 20 -20 89 -51 89 -6 0 -17 -4 -25 -9z"/>
<path d="M7352 743 c2 -10 10 -18 18 -18 8 0 16 8 18 18 2 12 -3 17 -18 17
-15 0 -20 -5 -18 -17z"/>
<path d="M5630 730 c-12 -7 -12 -13 -4 -27 13 -21 59 -24 59 -4 0 21 -37 42
-55 31z"/>
<path d="M11900 651 c-12 -17 -17 -31 -12 -31 12 0 46 50 39 56 -3 3 -15 -9
-27 -25z"/>
<path d="M8021 648 c-11 -28 -6 -38 18 -38 32 0 53 36 29 51 -22 15 -38 10
-47 -13z"/>
<path d="M11501 636 c-9 -10 -8 -16 4 -26 19 -16 41 1 32 24 -8 20 -21 20 -36
2z"/>
<path d="M680 604 c-11 -12 -10 -18 3 -32 15 -15 19 -15 32 -1 17 17 11 49
-10 49 -7 0 -18 -7 -25 -16z"/>
<path d="M5024 606 c-11 -29 0 -49 29 -50 35 -2 47 12 36 42 -10 25 -56 31
-65 8z"/>
<path d="M7295 570 c-4 -7 -3 -16 3 -22 14 -14 45 -2 40 15 -6 16 -34 21 -43
7z"/>
<path d="M9811 562 c-8 -15 -7 -23 4 -32 21 -18 47 -4 43 22 -4 29 -34 35 -47
10z"/>
<path d="M9231 526 c-8 -10 -6 -17 8 -30 21 -19 41 -14 41 9 0 22 -36 37 -49
21z"/>
<path d="M5388 509 c-21 -12 -24 -59 -6 -77 7 -7 21 -12 33 -12 12 0 26 5 33
12 19 19 15 66 -7 78 -24 12 -31 12 -53 -1z"/>
<path d="M1937 494 c-16 -16 -7 -44 14 -44 15 0 20 5 17 22 -3 22 -19 33 -31
22z"/>
<path d="M2149 462 c-36 -4 -59 -47 -47 -89 22 -82 149 -40 132 44 -7 35 -38
51 -85 45z"/>
<path d="M11330 460 c-18 -4 -25 -13 -25 -30 0 -17 7 -26 25 -30 29 -8 50 5
50 30 0 25 -21 38 -50 30z"/>
<path d="M4626 447 c-29 -21 -26 -76 5 -99 25 -19 28 -19 58 -4 25 14 31 23
31 51 0 56 -50 84 -94 52z"/>
<path d="M270 435 c-16 -19 -5 -47 17 -43 22 4 29 43 9 51 -8 3 -20 -1 -26 -8z"/>
<path d="M4290 431 c-30 -57 12 -99 74 -75 19 7 22 64 4 82 -19 19 -66 15 -78
-7z"/>
<path d="M6253 433 c-4 -9 -1 -19 5 -21 7 -2 9 -9 5 -15 -3 -7 3 -4 15 6 22
20 20 47 -4 47 -8 0 -18 -8 -21 -17z"/>
<path d="M1345 421 c-8 -15 3 -31 21 -31 9 0 14 7 12 17 -4 20 -24 28 -33 14z"/>
<path d="M1257 353 c-13 -12 -7 -41 10 -47 23 -9 47 22 32 41 -12 14 -32 17
-42 6z"/>
<path d="M5904 352 c-19 -12 -23 -40 -9 -52 19 -16 37 -8 41 17 4 24 -16 45
-32 35z"/>
<path d="M1640 320 c0 -15 5 -20 18 -18 9 2 17 10 17 18 0 8 -8 16 -17 18 -13
2 -18 -3 -18 -18z"/>
<path d="M5035 331 c-10 -9 -5 -47 7 -59 19 -19 44 -14 58 13 10 19 11 28 2
37 -11 11 -59 18 -67 9z"/>
<path d="M12524 329 c-3 -6 4 -21 16 -33 13 -11 20 -15 16 -8 -4 7 -1 12 8 12
9 0 16 9 16 20 0 15 -7 20 -24 20 -14 0 -28 -5 -32 -11z"/>
<path d="M6248 309 c-22 -12 -23 -52 -3 -69 20 -16 65 -4 66 18 4 55 -22 76
-63 51z"/>
<path d="M11045 291 c-8 -15 3 -31 21 -31 9 0 14 7 12 17 -4 20 -24 28 -33 14z"/>
<path d="M12324 285 c-29 -19 -21 -63 12 -71 43 -11 74 42 42 74 -16 16 -29
15 -54 -3z"/>
<path d="M1097 274 c-9 -10 2 -24 19 -24 8 0 14 7 14 15 0 15 -21 21 -33 9z"/>
<path d="M630 255 c0 -8 7 -15 15 -15 8 0 15 7 15 15 0 8 -7 15 -15 15 -8 0
-15 -7 -15 -15z"/>
<path d="M5643 222 c-33 -10 -93 -71 -93 -93 0 -11 -7 -19 -16 -19 -11 0 -14
-6 -9 -20 4 -12 2 -20 -5 -20 -8 0 -10 -9 -6 -25 6 -23 3 -25 -24 -25 -16 0
-30 -4 -30 -10 0 -6 120 -10 340 -10 306 0 395 7 312 23 -20 4 -33 17 -48 46
-10 23 -23 41 -28 41 -5 0 -23 15 -40 33 -53 55 -108 75 -226 81 -58 3 -115 2
-127 -2z"/>
<path d="M12540 190 c0 -13 7 -20 20 -20 13 0 20 7 20 20 0 13 -7 20 -20 20
-13 0 -20 -7 -20 -20z"/>
<path d="M12175 171 c-10 -16 -22 -28 -26 -26 -9 6 -37 -62 -45 -107 l-6 -38
126 0 126 0 0 38 c0 20 -7 50 -15 66 -8 15 -15 34 -15 42 0 7 -11 16 -25 20
-14 3 -25 12 -25 19 0 12 -39 13 -59 1 -5 -3 -11 -2 -13 4 -1 5 -12 -3 -23
-19z"/>
<path d="M11273 144 c-8 -21 13 -42 28 -27 13 13 5 43 -11 43 -6 0 -13 -7 -17
-16z"/>
<path d="M1980 136 c-27 -33 18 -72 48 -42 13 13 14 20 6 34 -15 23 -38 26
-54 8z"/>
<path d="M12091 90 c-1 -8 -4 -26 -7 -40 -5 -22 -4 -23 6 -7 6 10 9 28 7 40
-2 12 -5 15 -6 7z"/>
</g>
</svg>
