<?xml version="1.0" encoding="iso-8859-1"?>
<!-- Generator: Adobe Illustrator 19.0.0, SVG Export Plug-In . SVG Version: 6.00 Build 0)  -->
<svg version="1.1" id="Layer_1" xmlns="http://www.w3.org/2000/svg" xmlns:xlink="http://www.w3.org/1999/xlink" x="0px" y="0px"
	 viewBox="0 0 512.001 512.001" style="enable-background:new 0 0 512.001 512.001;" xml:space="preserve">
<path style="fill:#F2E7BF;" d="M298.023,91.796c-0.001,0-0.002,0-0.004,0v328.401c0.001,0,0.002,0,0.004,0
	c90.686,0,164.201-73.515,164.201-164.201S388.708,91.796,298.023,91.796z"/>
<circle style="opacity:0.08;enable-background:new    ;" cx="363.827" cy="325.538" r="36.019"/>
<path style="opacity:0.08;enable-background:new    ;" d="M313.86,404.359c-5.345,0-10.627-0.265-15.841-0.764v16.601
	c0.001,0,0.002,0,0.004,0c49.373,0,93.652-21.796,123.753-56.285C392.917,389.098,355.172,404.359,313.86,404.359z"/>
<path style="fill:#E18C36;" d="M287.341,13.924l-57.863,100.222h68.545V7.757C293.868,7.757,289.714,9.813,287.341,13.924z"/>
<path style="fill:#EC8560;" d="M119.299,92.379l29.952,111.783l96.938-96.938L134.406,77.272
	C125.234,74.815,116.841,83.207,119.299,92.379z"/>
<path style="fill:#E18C36;" d="M55.952,266.678l100.222,57.863V187.45L55.952,245.313C47.728,250.062,47.728,261.93,55.952,266.678z
	"/>
<path style="fill:#EC8560;" d="M134.406,434.719l111.783-29.952l-96.938-96.938l-29.952,111.783
	C116.841,428.785,125.234,437.177,134.406,434.719z"/>
<path style="fill:#E18C36;" d="M229.477,397.845l57.863,100.222c1.98,3.429,5.198,5.428,8.62,5.997
	c1.076,0.179,2.062-0.64,2.062-1.731V397.845L229.477,397.845L229.477,397.845z"/>
<path style="opacity:0.1;enable-background:new    ;" d="M143.585,183.017l5.666,21.145l89.774-89.774
	C199.359,124.793,165.558,149.661,143.585,183.017z"/>
<path style="opacity:0.1;enable-background:new    ;" d="M133.544,200.515c-10.841,21.917-16.945,46.596-16.945,72.704
	c0,10.27,0.952,20.317,2.756,30.065l36.819,21.258V187.45L133.544,200.515z"/>
<path style="opacity:0.1;enable-background:new    ;" d="M149.251,307.829l-12.066,45.031
	c14.916,26.839,37.133,49.057,63.973,63.973l45.031-12.066L149.251,307.829z"/>
<path style="opacity:0.1;enable-background:new    ;" d="M229.477,397.844l21.258,36.819c9.748,1.804,19.794,2.756,30.065,2.756
	c5.819,0,11.562-0.32,17.224-0.911v-38.664H229.477z"/>
<path style="fill:#F7D64C;" d="M133.822,255.995c0,90.686,73.515,164.201,164.201,164.201v-328.4
	C207.337,91.796,133.822,165.311,133.822,255.995z"/>
<path d="M203.044,206.624c-4.369,0-7.91,3.541-7.91,7.91v8.734c0,4.37,3.542,7.91,7.91,7.91s7.91-3.541,7.91-7.91v-8.734
	C210.954,210.166,207.412,206.624,203.044,206.624z M305.932,84.073V9.666c0-2.845-1.246-5.531-3.416-7.37
	c-2.178-1.845-5.043-2.63-7.854-2.164c-5.968,0.992-11.134,4.582-14.173,9.846l-49.123,85.086l-94.912-25.431
	c-7.072-1.896-14.381,0.064-19.556,5.24c-5.175,5.174-7.134,12.486-5.24,19.556l25.43,94.908l-85.096,49.13
	c-6.338,3.659-10.122,10.213-10.122,17.532c0,7.319,3.783,13.873,10.122,17.534l85.093,49.129l-25.431,94.911
	c-1.894,7.07,0.065,14.381,5.24,19.556c3.876,3.877,8.949,5.949,14.223,5.949c1.768,0,3.558-0.233,5.332-0.709l94.914-25.432
	l49.127,85.09c3.039,5.264,8.205,8.853,14.179,9.847c0.531,0.088,1.062,0.131,1.591,0.131c2.278,0,4.496-0.803,6.261-2.299
	c2.168-1.839,3.412-4.525,3.412-7.367v-74.411c91.245-4.149,164.201-79.671,164.201-171.923v-0.003
	C470.134,163.745,397.177,88.223,305.932,84.073z M132.019,301.464l-72.114-41.636c-1.998-1.153-2.213-3.064-2.213-3.833
	c0-0.768,0.215-2.678,2.212-3.831l72.115-41.636c-3.973,14.49-6.107,29.732-6.107,45.467v0.003
	C125.912,271.733,128.046,286.975,132.019,301.464z M290.112,24.952v59.121c-12.937,0.589-25.504,2.615-37.55,5.917L290.112,24.952z
	 M126.939,90.331c-0.597-2.227,0.602-3.731,1.144-4.274c0.543-0.542,2.045-1.738,4.274-1.145l80.491,21.568
	c-26.76,15.304-49.038,37.583-64.342,64.343L126.939,90.331z M132.355,427.083c-2.228,0.594-3.731-0.601-4.274-1.145
	c-0.543-0.543-1.741-2.046-1.144-4.274l21.569-80.496c15.304,26.761,37.583,49.041,64.343,64.346L132.355,427.083z M290.112,487.047
	l-37.552-65.042c12.047,3.302,24.614,5.328,37.552,5.917V487.047z M298.019,412.286c-86.176-0.002-156.285-70.112-156.286-156.288
	c0.001-86.178,70.112-156.288,156.29-156.288c86.179,0,156.289,70.11,156.29,156.288
	C454.312,342.176,384.201,412.286,298.019,412.286z M393.001,206.624c-4.369,0-7.91,3.541-7.91,7.91v8.734
	c0,4.37,3.542,7.91,7.91,7.91c4.369,0,7.91-3.541,7.91-7.91v-8.734C400.912,210.166,397.37,206.624,393.001,206.624z
	 M339.15,246.083c-4.369,0-7.91,3.541-7.91,7.91c0,6.977-5.676,12.653-12.653,12.653c-6.977,0-12.653-5.676-12.653-12.653
	c0-4.37-3.542-7.91-7.91-7.91c-4.369,0-7.91,3.541-7.91,7.91c0,6.977-5.676,12.653-12.652,12.653
	c-6.977,0-12.652-5.676-12.652-12.653c0-4.37-3.542-7.91-7.91-7.91c-4.369,0-7.91,3.541-7.91,7.91
	c0,15.702,12.773,28.474,28.473,28.474c8.075,0,15.377-3.379,20.563-8.798c5.187,5.419,12.488,8.798,20.564,8.798
	c15.701,0,28.474-12.773,28.474-28.474C347.06,249.625,343.518,246.083,339.15,246.083z"/>
<g>
</g>
<g>
</g>
<g>
</g>
<g>
</g>
<g>
</g>
<g>
</g>
<g>
</g>
<g>
</g>
<g>
</g>
<g>
</g>
<g>
</g>
<g>
</g>
<g>
</g>
<g>
</g>
<g>
</g>
</svg>
